<svg width="48" height="48" viewBox="0 0 48 48" fill="none" xmlns="http://www.w3.org/2000/svg">
<path d="M14.8635 30.7452C13.4805 32.2209 9.90296 36.0371 8.00957 36.8309C6.95316 37.2736 4.72804 37.467 3.62569 37.6909C2.3141 37.9555 2.20693 39.2581 2.71217 40.3165C3.70225 42.3976 6.16212 43.3899 8.1984 42.0567C8.47909 42.6317 8.16778 43.3033 8.11675 43.9394C7.92281 46.4836 11.7402 47.196 13.3325 45.9544C14.9146 44.723 13.6387 42.4027 13.8326 40.6167C13.8888 40.1078 14.2001 39.6702 14.5063 39.2632C16.0833 37.1973 17.9205 35.3299 19.967 33.7321" fill="white"/>
<path d="M35.2213 1.62964C28.5 0.77988 20.5743 4.39263 17.6653 10.0458C16.4558 12.3966 16.1088 15.1749 16.7008 17.7496C16.9815 18.9759 17.4612 20.2989 16.9202 21.4336C16.6549 21.9882 16.1853 22.4055 15.7311 22.8227C14.5624 23.8913 13.4193 25.0565 12.7711 26.5016C9.99993 32.6484 18.9514 35.3859 23.3914 34.5056C25.1266 34.1596 26.9639 33.3964 28.3112 32.2209C29.6585 31.0455 30.1944 29.3715 31.3681 28.1045C34.0271 25.2346 38.5436 25.1023 41.4373 22.3495C45.7906 18.2076 47.0154 11.3128 43.4327 6.28041C41.4526 3.49707 38.4824 2.0418 35.2264 1.62964H35.2213Z" fill="#D5873A"/>
<path d="M46.9746 13.226C46.9746 13.1802 46.9592 13.1345 46.9439 13.0937L46.9286 13.0276C46.9133 12.9665 46.8725 12.9258 46.8265 12.8851C46.8521 12.7325 46.7602 12.59 46.6122 12.5442L46.6837 12.5289C46.847 12.4933 46.9541 12.3356 46.9235 12.1677C46.9133 12.127 46.898 12.0862 46.8725 12.0506C46.9337 11.9183 46.898 11.7606 46.7704 11.6741C46.7092 11.6334 46.6377 11.6232 46.5714 11.6283C46.5714 11.6181 46.5663 11.6079 46.5612 11.6029C46.5612 11.5978 46.5663 11.5927 46.5714 11.5876C46.7653 11.2925 46.8929 11.0635 46.8061 10.8396C46.7857 10.7938 46.7602 10.7531 46.7296 10.7226C46.7602 10.6666 46.7755 10.6004 46.7653 10.5292L46.7347 10.3664C46.7245 10.3155 46.699 10.2697 46.6683 10.229C46.6581 10.2036 46.6479 10.1781 46.6326 10.1527C46.6326 10.1069 46.6326 10.056 46.6122 10.0102C46.5816 9.93895 46.5459 9.86772 46.5101 9.79648L46.4846 9.74051L46.5357 9.64383C46.5867 9.54715 46.5816 9.42503 46.5203 9.33344L46.4846 9.27747C46.4846 9.18079 46.4438 9.09428 46.3672 9.03322C46.3723 8.98743 46.3774 8.93655 46.3825 8.88057C46.3876 8.76863 46.3315 8.66177 46.2346 8.6058C46.2601 8.49386 46.2192 8.36665 46.1223 8.29032C46.1223 8.29032 46.1121 8.29032 46.1121 8.28523L45.9947 8.04099L46.0049 7.9494C46.0151 7.84254 45.9692 7.74586 45.8875 7.6848C45.8875 7.62883 45.8875 7.57286 45.862 7.52198L45.6936 7.18614C45.6374 7.07929 45.5252 7.01823 45.4129 7.01823C45.4282 6.9419 45.418 6.86558 45.3823 6.79943V6.78925C45.3925 6.7231 45.3823 6.65186 45.3516 6.58572C45.3159 6.50939 45.27 6.43815 45.2241 6.372L45.1679 6.28041C45.122 6.20409 45.0454 6.1532 44.9587 6.13794C44.9485 6.13794 44.9434 6.13794 44.9332 6.13794C44.9536 6.01582 44.9025 5.88861 44.7903 5.82246L44.6831 5.75631C44.6831 5.75631 44.6627 5.74613 44.6576 5.74105C44.581 5.56295 44.4994 5.38486 44.3973 5.20677C44.285 4.99305 44.1676 4.78443 44.035 4.5809C43.9941 4.51984 43.938 4.48931 43.8716 4.46386C43.7849 4.41807 43.6828 4.41298 43.5961 4.45369C43.5654 4.45369 43.5348 4.46386 43.5093 4.47404C43.4787 4.4486 43.443 4.43333 43.4072 4.42316C43.4072 4.34174 43.3766 4.26033 43.3103 4.19927C43.2286 4.12294 43.1469 4.07206 43.0704 4.03135C43.0602 3.89905 43.0245 3.78202 42.9632 3.68025C42.953 3.6599 42.9377 3.63955 42.9224 3.61919C42.8509 3.51743 42.7693 3.42584 42.6978 3.34951C42.6774 3.32916 42.6621 3.3088 42.6417 3.28845C42.6111 3.18668 42.5396 3.10018 42.4274 3.07474H42.4018L42.3508 2.97297C42.3049 2.89156 42.2283 2.83558 42.1365 2.81523C42.1007 2.81014 42.0599 2.81523 42.0242 2.81523C42.0089 2.80505 41.9936 2.78979 41.9732 2.7847C41.917 2.76435 41.8609 2.72873 41.8047 2.69311C41.769 2.63714 41.7282 2.59643 41.6874 2.5659C41.6516 2.54046 41.6057 2.5201 41.5496 2.50484C41.2893 2.3013 40.978 2.06724 40.585 2.09777C40.534 2.02653 40.4931 1.97056 40.4778 1.95021C40.4472 1.91459 40.4115 1.88915 40.3707 1.86879C40.1359 1.76194 39.9216 1.67035 39.7174 1.58384L39.5388 1.3396C39.4367 1.20222 39.2479 1.17677 39.1101 1.27345C39.0744 1.27345 39.0438 1.27345 39.0131 1.27345C39.0029 1.24292 38.9978 1.21239 38.9876 1.18186C38.9417 1.01903 38.7682 0.927443 38.6049 0.978327C38.564 0.988504 38.5283 1.01395 38.4977 1.03939C38.4824 1.0343 38.4722 1.02412 38.462 1.01903C38.4211 0.99868 38.3752 0.993592 38.3293 0.993592C38.3242 0.983415 38.3191 0.973239 38.314 0.963062C38.2987 0.947797 38.2884 0.927443 38.2731 0.912178C38.2119 0.830764 38.1149 0.708643 37.9618 0.667936C37.7985 0.617052 37.6352 0.59161 37.477 0.576345C37.4362 0.550903 37.3953 0.535638 37.3443 0.53055C37.2729 0.53055 37.1861 0.50002 37.0993 0.469489C36.9564 0.423694 36.7727 0.37281 36.5788 0.382987C36.5533 0.367722 36.5329 0.347368 36.5073 0.34228C36.2369 0.245601 35.8439 0.113303 35.5071 0.34228C35.4458 0.291396 35.3642 0.265954 35.2825 0.271043L34.91 0.31175C34.91 0.31175 34.8895 0.316838 34.8793 0.321927C34.6956 0.245601 34.1291 0.128568 34.0577 0.128568C34.0219 0.128568 33.9862 0.133657 33.9556 0.143833C33.8229 0.0573311 33.7055 0.0776846 33.629 0.103126C33.629 0.103126 33.629 0.103126 33.6239 0.0980381C33.5014 -0.0189946 33.3075 -0.0189946 33.1901 0.0980381C33.1799 0.108215 33.1799 0.118392 33.1748 0.12348C33.0421 0.0675078 32.9043 0.0573311 32.8226 0.0573311C32.7614 0.0573311 32.6746 0.0522427 32.644 0.0369776C32.547 -0.0139062 32.4297 -0.0139062 32.3378 0.0471543C32.3021 0.0725962 32.2766 0.103126 32.251 0.138745C32.2204 0.128568 32.1898 0.118392 32.1541 0.113303L31.8326 0.0980381C31.756 0.0980381 31.6897 0.128568 31.6386 0.164187C31.5774 0.128568 31.511 0.113303 31.4396 0.12348C31.3171 0.0725962 31.1742 0.0980381 31.0875 0.204894C31.0466 0.215071 31.0058 0.220159 30.9701 0.230336C30.9395 0.204894 30.8986 0.18454 30.8578 0.174364C30.6996 0.133657 30.5414 0.225247 30.4954 0.377899C30.4801 0.377899 30.4648 0.377899 30.4495 0.377899H30.4444C30.4444 0.377899 30.424 0.357545 30.4087 0.347368C30.3934 0.34228 30.3832 0.337192 30.3679 0.332103C30.2505 0.225247 30.0668 0.220159 29.9494 0.332103C29.883 0.393164 29.8575 0.479666 29.8575 0.566169C29.8371 0.555992 29.8167 0.545815 29.7912 0.545815L29.6687 0.53055C29.633 0.515285 29.5921 0.505108 29.5564 0.510196C29.5513 0.510196 29.5411 0.510196 29.536 0.510196L29.1328 0.459313C29.0052 0.438959 28.8828 0.510196 28.8266 0.617052L28.551 0.642494C28.5204 0.642494 28.4949 0.657759 28.4694 0.667936L28.3826 0.632317C28.2601 0.581434 28.1274 0.617052 28.0407 0.713731H28.0305C27.9692 0.713731 27.9182 0.739173 27.8672 0.769704C27.7702 0.769704 27.6834 0.800234 27.6222 0.876559C27.5252 0.830764 27.413 0.840941 27.3211 0.902001L27.117 1.04448C26.9792 1.04448 26.872 1.06992 26.7852 1.11062C26.7189 1.12589 26.6576 1.15642 26.6168 1.21239L26.5505 1.29381C26.479 1.25819 26.3974 1.24292 26.3208 1.26328L25.9636 1.36504C25.8003 1.41084 25.7084 1.57876 25.7543 1.74158C25.7645 1.77211 25.7798 1.79756 25.7952 1.823C25.7798 1.85862 25.7645 1.89423 25.7645 1.92985C25.7645 1.95021 25.7645 1.97056 25.7696 1.99091H25.7645C25.7645 1.99091 25.739 2.00109 25.7288 2.00618C25.6931 1.96038 25.6421 1.92476 25.5859 1.9095C25.54 1.80773 25.443 1.74158 25.3358 1.73141C25.2695 1.71105 25.1929 1.71105 25.1215 1.74158L24.9276 1.82809C24.8612 1.85862 24.8153 1.91459 24.7847 1.98583C24.5142 2.06724 24.2845 2.15883 24.0651 2.24533L23.9273 2.3013C23.815 2.3471 23.7487 2.44887 23.7385 2.56081L23.4578 2.53537C23.3506 2.52519 23.2434 2.57099 23.1822 2.65749C23.1567 2.69311 23.1414 2.7389 23.1311 2.7847C23.0801 2.79488 23.0393 2.81523 22.9985 2.84067C22.9576 2.8305 22.9168 2.8305 22.876 2.84067C22.7382 2.86611 22.6361 2.98315 22.631 3.12053H22.5545C22.4014 3.12053 22.2636 3.23248 22.2431 3.38513C22.0747 3.35969 21.8706 3.42075 21.6562 3.68025C21.6256 3.70061 21.595 3.72096 21.5695 3.75149L21.396 3.80237C21.3092 3.82782 21.248 3.89397 21.2122 3.97029C21.1867 3.97538 21.1612 3.98556 21.1357 4.00082C21.0642 4.04153 20.9979 4.09241 20.9316 4.13821C20.8652 4.17383 20.804 4.20436 20.7427 4.23998C20.707 4.26542 20.6764 4.29595 20.656 4.32648C20.5692 4.39263 20.4824 4.45369 20.4059 4.51475C20.3855 4.53001 20.3702 4.55545 20.3549 4.57581C20.2528 4.62669 20.1915 4.72846 20.1864 4.8404C20.1303 4.8862 20.0895 4.94726 20.0742 5.0185C19.9262 5.06938 19.7782 5.12026 19.6404 5.18641C19.5587 5.22203 19.5026 5.29327 19.4771 5.36959L19.3699 5.47136C19.3138 5.52225 19.2882 5.59348 19.2831 5.65963C19.2678 5.66981 19.2474 5.6749 19.2321 5.68507L19.13 5.73596C19.0688 5.76649 19.028 5.81228 18.9973 5.86826C18.88 5.87334 18.7779 5.93949 18.732 6.04635C18.7013 6.11759 18.7013 6.19391 18.7217 6.26006C18.7166 6.27533 18.7064 6.2855 18.7013 6.30077C18.6707 6.30586 18.6401 6.31094 18.6197 6.31603C18.5329 6.33639 18.4666 6.39745 18.4257 6.47377C18.3339 6.49921 18.2522 6.56536 18.2216 6.66204C18.2063 6.71293 18.2063 6.7689 18.2165 6.81469C18.2165 6.81469 18.2165 6.81978 18.2114 6.82487H18.1604C18.0481 6.82487 17.946 6.88593 17.895 6.98261L17.8388 7.07929C17.8133 7.12508 17.8031 7.17597 17.8031 7.22685C17.7368 7.25738 17.6806 7.30827 17.65 7.37441L17.5939 7.50671L17.5071 7.56268C17.4102 7.62374 17.3642 7.7306 17.3744 7.83746C17.2775 7.87307 17.2009 7.95449 17.1754 8.06135C17.1601 8.07661 17.1448 8.09188 17.1346 8.11223C17.1039 8.17329 17.0529 8.30559 17.0427 8.44297C17.0427 8.44297 17.0427 8.45315 17.0427 8.45824C16.9662 8.4735 16.8947 8.51421 16.8488 8.58545L16.5936 8.95181C16.5068 9.07393 16.5324 9.23167 16.6293 9.33344C16.6038 9.36906 16.5885 9.40976 16.5783 9.45556L16.3793 9.5268C16.2619 9.5675 16.1802 9.67945 16.1751 9.79648C16.1496 9.82192 16.1241 9.85754 16.1088 9.89316C16.0935 9.92878 16.0884 9.9644 16.0833 9.99493C16.0628 10.0204 16.0424 10.0458 16.0271 10.0763C15.971 10.2036 16.0169 10.346 16.119 10.4325C16.0271 10.5139 15.9914 10.6412 16.0322 10.7633C16.0169 10.7633 16.0016 10.7531 15.9863 10.7531C15.8638 10.7633 15.7617 10.8447 15.7209 10.9617L15.6342 11.2161C15.6086 11.2925 15.6137 11.3688 15.6444 11.4349C15.6239 11.4604 15.6086 11.4909 15.5933 11.5164C15.5627 11.5621 15.5525 11.613 15.5525 11.6639C15.5525 11.6639 15.5423 11.6741 15.5423 11.6792L15.4555 11.8471C15.4198 11.9183 15.4147 11.9947 15.4351 12.0659C15.379 12.2084 15.3484 12.3559 15.3279 12.4831C15.3177 12.5442 15.3075 12.6002 15.2973 12.6561C15.282 12.7325 15.2973 12.8088 15.333 12.8699C15.2412 12.9258 15.1748 13.0174 15.1799 13.1345V13.3227C15.1391 13.3838 15.1187 13.4601 15.1289 13.5364L15.1493 13.6993C15.1544 13.7603 15.1953 13.8061 15.2361 13.8468C15.2259 13.913 15.2361 13.9791 15.2718 14.0351C15.2718 14.0554 15.282 14.0809 15.2922 14.1012C15.1595 14.142 15.0677 14.2641 15.0779 14.4065C15.0779 14.4727 15.1085 14.5287 15.1493 14.5745C15.1544 14.6253 15.1697 14.6762 15.2004 14.722C15.231 14.7678 15.2769 14.7984 15.3228 14.8187C15.3279 14.8289 15.333 14.8441 15.3433 14.8594L15.3994 14.9357L15.3024 15.1444C15.3024 15.1444 15.3024 15.1596 15.2973 15.1698C15.2871 15.1902 15.2871 15.2105 15.282 15.2309C15.282 15.2512 15.282 15.2665 15.282 15.2868C15.282 15.3072 15.282 15.3225 15.2922 15.3428C15.2922 15.3581 15.2922 15.3733 15.3024 15.3886C15.2769 15.414 15.2565 15.4446 15.2412 15.4802L15.2259 15.5158C15.1085 15.5667 15.0319 15.6786 15.037 15.8109L15.0473 15.9534C15.0473 16.0094 15.0728 16.0603 15.1085 16.1061C15.1238 16.1569 15.1442 16.2027 15.185 16.2435C15.1697 16.3096 15.1595 16.3808 15.1391 16.4826H15.1595C15.1187 16.5538 15.0983 16.6353 15.1187 16.7167C15.1238 16.7421 15.134 16.7676 15.1391 16.7981C15.0779 16.9304 15.1136 17.0881 15.2361 17.1695C15.2565 17.2357 15.2718 17.2967 15.2922 17.3578C15.2463 17.429 15.2259 17.5206 15.2565 17.6071L15.3994 18.0702C15.4096 18.1058 15.43 18.1414 15.4504 18.1669C15.3381 18.5078 15.4759 18.7927 15.6239 19.0166C15.6137 19.0624 15.6086 19.1082 15.6188 19.1591L15.6393 19.2456C15.6137 19.3474 15.6393 19.4542 15.7158 19.5356C15.6852 19.6069 15.6801 19.6832 15.7056 19.7595C15.7515 19.8816 15.7873 19.9936 15.8128 20.0953C15.8077 20.1157 15.8026 20.1259 15.7975 20.1462C15.7668 20.192 15.7413 20.2429 15.7362 20.304C15.7362 20.304 15.7362 20.3091 15.7362 20.3141C15.7362 20.3243 15.7311 20.3345 15.726 20.3396C15.6903 20.4159 15.6852 20.4973 15.7107 20.5686C15.7056 20.6042 15.6903 20.6398 15.6954 20.6754C15.6954 20.6907 15.7107 20.7009 15.7158 20.7161C15.6954 20.7365 15.675 20.7619 15.6597 20.7925C15.6393 20.8332 15.6137 20.8739 15.5831 20.9197C15.578 20.9298 15.578 20.9349 15.5729 20.9451C15.4606 20.9909 15.379 21.1028 15.3841 21.2351C15.3841 21.2351 15.3841 21.2402 15.3841 21.2453C15.3126 21.2809 15.2565 21.3471 15.231 21.4285C15.2208 21.4539 15.1646 21.5048 15.1085 21.5506C15.0677 21.5608 15.0268 21.5761 14.9911 21.6066L14.6645 21.8559C14.5522 21.9424 14.5216 22.0951 14.5777 22.2172L14.5573 22.207C14.4297 22.1409 14.2766 22.1714 14.1848 22.2783C13.9602 22.5378 13.7408 22.8024 13.5315 23.0771C13.5009 23.1178 13.4856 23.1586 13.4754 23.2043C13.3172 23.1942 13.1743 23.301 13.1488 23.4588C13.1488 23.4842 13.1488 23.5046 13.1488 23.5249C13.0773 23.586 13.0008 23.6521 12.9293 23.7234C12.8528 23.7488 12.766 23.7895 12.7048 23.8709C12.5823 24.0185 12.4853 24.1864 12.419 24.3594L12.4088 24.3747C12.3577 24.4001 12.3118 24.4408 12.2863 24.4917C12.1893 24.6749 12.0923 24.8784 12.0005 25.0921C12.0005 25.1023 11.9852 25.1125 11.9852 25.1227C11.9086 25.143 11.8423 25.199 11.8014 25.2702L11.6585 25.5399C11.5973 25.6519 11.6177 25.7892 11.7045 25.8859C11.6943 25.9215 11.6892 25.9572 11.6943 25.9979C11.7045 26.0945 11.7198 26.1963 11.7402 26.293C11.7555 26.3642 11.7912 26.4253 11.8474 26.4711C11.8321 26.5372 11.8321 26.6136 11.8321 26.6899C11.7249 26.6339 11.5871 26.6492 11.4901 26.7357L11.1788 27.0155C11.0512 27.1275 11.0461 27.3208 11.1584 27.4481C11.1992 27.4938 11.2554 27.5193 11.3115 27.5346C11.3013 27.5905 11.3064 27.6465 11.3268 27.7025C11.3064 27.7177 11.286 27.733 11.2707 27.7534C11.0053 28.0892 10.8216 28.3487 10.8777 28.6133C10.9134 28.7812 11.0359 28.883 11.1278 28.944C11.0819 29.0254 11.0308 29.1069 10.9951 29.2035C10.9696 29.2646 10.9645 29.3358 10.9849 29.402L11.0308 29.5546C11.0053 29.6157 10.9951 29.6869 11.0155 29.7582C11.0461 29.8752 11.0921 29.9821 11.1431 30.0889L11.1941 30.206C11.1941 30.206 11.2094 30.2212 11.2145 30.2314C11.189 30.3128 11.1635 30.3891 11.1431 30.4705C11.1278 30.552 11.1431 30.6385 11.189 30.7046L11.2554 30.8064C11.3064 30.8776 11.383 30.9234 11.4697 30.9336C11.4748 30.9336 11.485 30.9336 11.4901 30.9336C11.4646 30.9896 11.4544 31.0557 11.4697 31.1168L11.5259 31.4017C11.5463 31.4984 11.6126 31.5849 11.7045 31.6205C11.7351 31.6358 11.7657 31.646 11.8014 31.6612C11.7912 31.707 11.7861 31.7477 11.7963 31.7884C11.7759 31.8037 11.7453 31.8088 11.73 31.8342C11.6943 31.8749 11.6739 31.9309 11.6637 31.9818C11.6637 31.9818 11.6585 31.9818 11.6534 31.9818C11.5463 32.0123 11.4697 32.1039 11.4493 32.2108C11.3932 32.2464 11.3574 32.2871 11.3319 32.3227C11.2452 32.4601 11.2707 32.5975 11.3064 32.7043C11.2962 32.7349 11.2809 32.7603 11.2758 32.7959C11.2401 32.7705 11.1992 32.74 11.1584 32.7349C11.0512 32.6993 10.9339 32.7196 10.8471 32.801L10.7859 32.8621C10.6889 32.9537 10.6838 33.1114 10.745 33.2335C10.7195 33.2437 10.694 33.2437 10.6685 33.259C10.6481 33.2742 10.6379 33.2946 10.6225 33.3099C10.5613 33.259 10.4745 33.2335 10.3929 33.2488C10.2857 33.2641 10.2041 33.3353 10.1632 33.4269C10.1377 33.4371 10.1122 33.4422 10.0867 33.4574C10.0254 33.4981 9.98971 33.5541 9.9693 33.6152C9.90806 33.6559 9.86723 33.7118 9.84171 33.7831C9.83151 33.8136 9.83151 33.8492 9.83151 33.8798H9.73454C9.62737 33.8798 9.53551 33.9459 9.47937 34.0324L9.21399 34.2156C9.13743 34.2665 9.09661 34.3479 9.0864 34.4344H9.0813C8.90778 34.4242 8.76488 34.5463 8.75467 34.7143C8.74957 34.7855 8.76999 34.8465 8.80571 34.9025C8.78019 34.8873 8.75978 34.872 8.72916 34.8567C8.60157 34.7957 8.45357 34.8313 8.36171 34.9381C8.33109 34.9738 8.31067 35.0196 8.30047 35.0653L8.23922 35.1468C8.23922 35.1468 8.2086 35.1417 8.1984 35.1366C8.0606 35.0908 7.91771 35.1519 7.84115 35.274C7.81053 35.2892 7.78502 35.3096 7.7595 35.335C7.7595 35.335 7.7595 35.335 7.7544 35.335L7.62681 35.3605C7.56557 35.3707 7.51453 35.4063 7.4737 35.447C7.43288 35.447 7.39715 35.4572 7.36143 35.4724C7.35122 35.4724 7.33591 35.4724 7.3257 35.4724C7.1675 35.5233 7.08074 35.6963 7.13177 35.8591L7.1675 35.9609C7.1675 35.9609 7.12667 35.9813 7.11136 35.9965C7.09094 36.0169 7.07563 36.0423 7.06032 36.0678C7.04501 35.9762 6.99398 35.8948 6.90722 35.849C6.78984 35.7879 6.65205 35.8133 6.56018 35.8998C6.50405 35.8998 6.44791 35.91 6.39687 35.9456L6.38156 35.9304C6.26929 35.8032 6.07535 35.7879 5.94777 35.8998C5.91715 35.9253 5.89163 35.9609 5.87632 35.9914C5.79977 35.9609 5.7079 35.9558 5.63135 35.9965C5.51397 36.0576 5.45783 36.1848 5.47314 36.3069C5.44252 36.3069 5.4119 36.3069 5.38639 36.312C5.36597 36.2255 5.30983 36.1441 5.22818 36.1034L5.1057 36.0423C5.1057 36.0423 5.09038 36.0423 5.08528 36.0372C4.99852 35.9762 4.88625 35.9609 4.78418 36.0067L4.43714 36.1695C4.43714 36.1695 4.42693 36.1797 4.41673 36.1848C4.33507 36.1136 4.24831 36.0627 4.15135 36.0525C4.01866 36.0423 3.91659 36.0932 3.82472 36.1644C3.73797 36.1288 3.641 36.1237 3.55424 36.1695C3.54914 36.1695 3.54403 36.1797 3.53383 36.1848C3.47258 36.1746 3.40624 36.1746 3.33989 36.2051L3.24803 36.2509C3.15107 36.2967 3.04389 36.3527 2.93162 36.4138C2.84996 36.3781 2.7581 36.3781 2.67134 36.4189C2.59479 36.4545 2.54375 36.5206 2.51824 36.5919H2.4621C2.33962 36.5766 2.22734 36.6377 2.1712 36.7394C2.14058 36.7903 2.13037 36.8463 2.13037 36.9022C2.03851 36.8921 1.94665 36.9226 1.8752 36.9938L1.68637 37.1974C1.64554 37.2381 1.62513 37.2941 1.61492 37.3449C1.56899 37.406 1.54858 37.4874 1.56389 37.5688C1.57409 37.6452 1.61492 37.7062 1.66596 37.752C1.56389 37.7775 1.48223 37.864 1.45161 37.981C1.34954 37.9912 1.25258 38.0471 1.20665 38.1489C1.16582 38.2354 1.1352 38.3219 1.10458 38.4135L1.08416 38.4746C1.04844 38.5763 1.07395 38.6781 1.1352 38.7544C1.04333 38.8155 0.987196 38.9223 1.00251 39.0343C1.02802 39.2887 1.07395 39.5177 1.15051 39.7568C1.16582 39.8077 1.20154 39.8535 1.23727 39.884C1.23216 40.0062 1.22706 40.1283 1.23727 40.2657C1.23727 40.3013 1.25768 40.3318 1.26278 40.3674C1.25768 40.4183 1.25768 40.4692 1.27299 40.515L1.30361 40.6015C1.31382 40.6371 1.34444 40.6524 1.36485 40.6829C1.36485 40.7389 1.38016 40.7949 1.41589 40.8457C1.46692 40.9221 1.52306 40.9882 1.5792 41.0493C1.57409 41.1103 1.5792 41.1714 1.60982 41.2325L1.68127 41.3597C1.73741 41.4563 1.83948 41.5174 1.95175 41.5174C1.96196 41.5174 1.96706 41.5174 1.97727 41.5174C2.00279 41.5174 2.0283 41.4971 2.05382 41.4869C2.08444 41.4971 2.11506 41.5123 2.14568 41.5123H2.20693L2.14568 41.7667C2.10486 41.9296 2.20182 42.0975 2.37024 42.1382C2.39575 42.1433 2.42127 42.1484 2.44679 42.1484C2.4672 42.1484 2.48251 42.1433 2.50293 42.1382C2.49272 42.3061 2.51313 42.4638 2.66113 42.5605C2.72748 42.6012 2.79382 42.6216 2.85507 42.6216C2.85507 42.6216 2.86017 42.6216 2.86527 42.6216C2.89079 42.6776 2.92651 42.7234 2.98265 42.759C3.01838 42.8302 3.06941 42.8862 3.14086 42.9116L3.197 42.932C3.197 43.0846 3.30927 43.222 3.46238 43.2424L3.52362 43.2525C3.52362 43.2525 3.54914 43.2525 3.55934 43.2525C3.56955 43.2678 3.57465 43.2831 3.58486 43.3034C3.62569 43.3798 3.69203 43.4306 3.77369 43.4561C3.7941 43.4612 3.81452 43.4663 3.83493 43.4663C3.88086 43.5171 3.94721 43.5528 4.02376 43.5629C4.03397 43.5629 4.04417 43.5629 4.05948 43.5629C4.0901 43.5629 4.12073 43.5528 4.15135 43.5477L4.16666 43.5731C4.21769 43.6698 4.30955 43.7207 4.41162 43.7309C4.43204 43.7512 4.45755 43.7665 4.48307 43.7817C4.56983 43.8174 4.65659 43.8479 4.74845 43.8733C4.77397 43.8784 4.79949 43.8835 4.825 43.8835C4.9628 43.8835 5.08528 43.7919 5.12101 43.6545C5.12611 43.6291 5.12101 43.6036 5.12101 43.5833C5.16183 43.6393 5.21287 43.6749 5.2639 43.6952C5.29963 43.797 5.38639 43.8784 5.50377 43.8988C5.51908 43.8988 5.53439 43.8988 5.5548 43.8988C5.65687 43.8988 5.74363 43.8479 5.79977 43.7716C5.8457 43.7919 5.89163 43.8123 5.93756 43.8275L6.02942 43.8631C6.06515 43.8784 6.10087 43.8835 6.1366 43.8835C6.1366 43.8835 6.1417 43.8835 6.1468 43.8835C6.20294 43.9446 6.27949 43.9802 6.36115 43.9853H6.36625C6.36625 43.9853 6.39177 43.9853 6.40708 43.9802C6.46322 44.0463 6.54487 44.0921 6.63674 44.0921C6.63674 44.0921 6.68267 44.0819 6.70308 44.0769V44.087C6.69798 44.1277 6.69287 44.1634 6.69287 44.2041C6.69287 44.2041 6.69287 44.2499 6.69287 44.255C6.69287 44.316 6.69287 44.433 6.74901 44.5552C6.74391 44.5857 6.7337 44.6111 6.7337 44.6417C6.7388 44.8096 6.75922 45.2014 7.08074 45.3693C7.08074 45.4355 7.10115 45.5016 7.14708 45.5525L7.33081 45.7662C7.33081 45.7662 7.34101 45.7713 7.34612 45.7764C7.40226 45.9952 7.58598 46.3361 7.65233 46.3972C7.65743 46.4022 7.66764 46.4073 7.67784 46.4124C7.68805 46.443 7.69826 46.4735 7.71867 46.5091C7.74419 46.5447 7.77991 46.5803 7.82074 46.6109C7.83605 46.7533 7.94833 46.8704 8.09633 46.8856C8.10653 46.8856 8.11164 46.8856 8.12184 46.8856C8.13205 46.8856 8.14226 46.8856 8.15247 46.8806C8.18819 46.9314 8.23412 46.9823 8.29536 47.0332C8.31578 47.0485 8.34129 47.0688 8.33619 47.0586C8.36681 47.1757 8.46378 47.2673 8.58626 47.2825C8.60157 47.2825 8.61688 47.2825 8.63219 47.2825C8.65771 47.2825 8.68323 47.2673 8.70874 47.2622L8.88226 47.3894C8.9384 47.4301 8.99964 47.4505 9.06599 47.4505C9.07619 47.4505 9.0813 47.4454 9.0915 47.4454C9.09661 47.4606 9.09661 47.4759 9.10681 47.4912C9.16806 47.5777 9.25992 47.6184 9.35688 47.6184C9.3824 47.6184 9.41302 47.6184 9.43854 47.6082C9.45895 47.6438 9.48957 47.6693 9.5253 47.6947C9.57633 47.7252 9.63247 47.7456 9.69371 47.7456C9.74475 47.7456 9.79068 47.7354 9.83661 47.71C9.89275 47.7965 9.98971 47.8473 10.0918 47.8473C10.1122 47.8473 10.1326 47.8473 10.153 47.8423C10.2296 47.827 10.2959 47.7812 10.3367 47.7201C10.347 47.7303 10.3674 47.7354 10.3776 47.7405C10.449 47.7965 10.5205 47.8473 10.597 47.9033C10.6532 47.944 10.7144 47.9593 10.7756 47.9593C10.8471 47.9593 10.9134 47.9288 10.9696 47.883L11.0563 47.9033C11.0563 47.9033 11.1023 47.9135 11.1227 47.9135C11.1431 47.9135 11.1686 47.9084 11.189 47.9033L11.2197 47.9186C11.2656 47.9389 11.3115 47.9593 11.3625 47.9796C11.3983 47.9898 11.434 48 11.4646 48C11.4952 48 11.5208 47.9949 11.5463 47.9847C11.5565 47.9847 11.5667 47.9898 11.582 47.9898C11.7096 47.9898 11.827 47.9084 11.8729 47.7863L11.9137 47.6743C11.9137 47.6743 11.9494 47.6998 11.9699 47.7049V47.7201C12.0209 47.8219 12.1179 47.8881 12.2301 47.8982C12.2403 47.8982 12.2506 47.8982 12.2557 47.8982C12.3322 47.8982 12.4037 47.8626 12.4598 47.8066C12.5006 47.8219 12.5414 47.8321 12.5823 47.8321C12.6027 47.8321 12.6231 47.8321 12.6435 47.827L12.8681 47.7863C13.0365 47.7558 13.1437 47.5929 13.1079 47.4301C13.0977 47.3843 13.0773 47.3487 13.0518 47.3131C13.0518 47.308 13.062 47.3029 13.062 47.2978C13.0773 47.2571 13.0824 47.2113 13.0773 47.1706C13.1181 47.1451 13.1539 47.1095 13.1794 47.0637L13.1998 47.0739L13.2763 47.0994V47.1299C13.2763 47.1299 13.2815 47.1655 13.2866 47.1859C13.261 47.1808 13.2457 47.1706 13.2355 47.1655C13.2355 47.1655 13.2508 47.1757 13.2763 47.2062C13.2763 47.2113 13.2866 47.2113 13.2917 47.2164C13.3223 47.3436 13.4346 47.4403 13.5723 47.4454H13.5826C13.7152 47.4454 13.8326 47.3589 13.8735 47.2367C13.8837 47.2367 13.8888 47.2317 13.899 47.2266C14.0623 47.1502 14.2307 47.0739 14.3889 46.9518C14.4655 46.8907 14.5012 46.7991 14.5012 46.7076C14.5624 46.6974 14.6186 46.6923 14.6849 46.677C14.7921 46.6516 14.8737 46.5651 14.9044 46.4582C14.9146 46.4175 14.9044 46.3768 14.9044 46.3361C14.9911 46.2547 15.0319 46.1275 14.986 46.0104C14.9758 45.9748 14.9554 45.9494 14.935 45.9239C14.9911 45.9087 15.0421 45.8781 15.083 45.8323C15.1391 45.7662 15.1646 45.6797 15.1544 45.6034C15.2616 45.5728 15.3381 45.5118 15.3841 45.4609C15.4555 45.3744 15.5321 45.2268 15.481 44.9775C15.481 44.9521 15.4606 44.9317 15.4504 44.9063C15.4964 44.8656 15.5321 44.8096 15.5423 44.7485C15.5474 44.718 15.5525 44.6875 15.5474 44.662C15.5525 44.6417 15.5576 44.6162 15.5576 44.5908C15.5729 44.5653 15.5882 44.5399 15.5984 44.5094L15.6444 44.3516C15.6699 44.26 15.6495 44.1684 15.6035 44.0972L15.6137 44.0819C15.7056 43.9395 15.6597 43.7512 15.5168 43.6596C15.5015 43.6494 15.4861 43.6494 15.4708 43.6443C15.5525 43.5833 15.6035 43.4866 15.5882 43.3747L15.5678 43.1711C15.5678 43.1253 15.5423 43.0795 15.5219 43.0439C15.5321 43.0134 15.5372 42.9829 15.5372 42.9472C15.5831 42.8709 15.5933 42.7742 15.5576 42.6877C15.5372 42.6368 15.5015 42.5911 15.4606 42.5554C15.5015 42.4791 15.5117 42.3875 15.4759 42.301C15.4759 42.2858 15.4606 42.2807 15.4555 42.2654C15.4606 42.2501 15.4708 42.24 15.4708 42.2298C15.4913 42.1484 15.4759 42.067 15.4351 41.9957L15.4045 41.9499C15.4045 41.899 15.3892 41.8431 15.3586 41.7973L15.3279 41.7464C15.3433 41.7159 15.3586 41.6904 15.3637 41.6548C15.379 41.5479 15.333 41.4411 15.2463 41.3749C15.2055 41.2986 15.1442 41.2325 15.083 41.1663C15.083 41.1205 15.083 41.0696 15.0677 41.0289C15.2157 41.0187 15.3381 40.9068 15.3535 40.7592C15.3535 40.7236 15.3535 40.6931 15.3433 40.6575V40.6422C15.3433 40.6422 15.3586 40.5964 15.3586 40.5761C15.4147 40.5252 15.4453 40.4641 15.4555 40.3929C15.4759 40.3623 15.4964 40.3369 15.5117 40.3013C15.5219 40.286 15.527 40.2708 15.5372 40.2555C15.6035 40.225 15.6648 40.1741 15.6954 40.0977C15.7617 40.052 15.8077 39.9756 15.8179 39.8942L15.8281 39.8128C15.8281 39.8128 15.8281 39.7975 15.8281 39.7924C15.8893 39.7721 15.9506 39.7416 15.9914 39.6805C16.073 39.5635 16.0577 39.4159 15.971 39.3141C15.9761 39.3141 15.9812 39.3141 15.9863 39.3091C16.0016 39.2989 16.0067 39.2887 16.022 39.2785C16.073 39.3091 16.1241 39.3294 16.1802 39.3294C16.267 39.3294 16.3588 39.2938 16.415 39.2175L16.4558 39.1666C16.5068 39.1055 16.5273 39.0241 16.5222 38.9478C16.5273 38.9478 16.5324 38.9478 16.5375 38.9478C16.6804 38.9478 16.8131 38.8409 16.8437 38.6984C16.8437 38.6883 16.8437 38.6781 16.8437 38.673C16.8947 38.6476 16.9355 38.6069 16.9662 38.556L17.0784 38.3575C17.1193 38.2863 17.1244 38.1998 17.0988 38.1235C17.1091 38.1235 17.1193 38.1286 17.1244 38.1286C17.1397 38.1286 17.155 38.1286 17.1703 38.1286C17.1907 38.1286 17.2111 38.1184 17.2315 38.1133C17.303 38.0929 17.4 38.0828 17.4612 38.0166L17.5531 37.9199C17.5888 37.8792 17.6092 37.8334 17.6194 37.7825C17.6704 37.7367 17.7062 37.6757 17.7164 37.6095L18.0532 37.4569C18.1297 37.4213 18.191 37.3551 18.2165 37.2737C18.242 37.1923 18.2369 37.1058 18.1961 37.0345L18.1706 36.9888C18.1706 36.9888 18.2063 36.9989 18.2216 36.9989C18.2675 36.9989 18.3186 36.9888 18.3645 36.9633C18.3849 36.9531 18.4053 36.9328 18.4206 36.9175C18.4309 36.9175 18.4462 36.9226 18.4564 36.9226C18.4615 36.9226 18.4717 36.9226 18.4768 36.9226C18.6248 36.9124 18.7371 36.7954 18.7524 36.6478C18.8034 36.6071 18.8391 36.5562 18.8544 36.4901C18.8646 36.4799 18.8749 36.4748 18.8902 36.4646C18.9667 36.4138 19.13 36.3018 19.1709 36.0932C19.2066 36.0728 19.2372 36.0525 19.2627 36.022L19.3291 35.9405C19.375 35.8846 19.4107 35.849 19.4515 35.8032C19.5485 35.8744 19.6404 35.91 19.7169 35.9151C19.7322 35.9151 19.7526 35.9151 19.7731 35.9151C19.8751 35.9151 20.0027 35.8846 20.1405 35.7777C20.1864 35.8032 20.2375 35.8235 20.2885 35.8235H20.3038C20.6917 35.8032 21.0642 35.7726 21.4062 35.7268C21.447 35.7217 21.4776 35.7014 21.5082 35.681C21.5593 35.7421 21.6358 35.7828 21.7175 35.7879L22.1156 35.8184C22.1156 35.8184 22.1309 35.8184 22.136 35.8184C22.1564 35.8184 22.1717 35.8133 22.187 35.8082C22.2176 35.8337 22.2482 35.8591 22.284 35.8693C22.4116 35.9202 22.5391 35.9711 22.6718 36.0118C22.7025 36.022 22.7331 36.0271 22.7637 36.0271C22.876 36.0271 22.978 35.9609 23.0291 35.8642C23.1669 35.793 23.2791 35.7319 23.3965 35.6658C23.3965 35.6658 23.3965 35.6658 23.4016 35.6607C23.4578 35.7014 23.519 35.7268 23.5854 35.7268C23.6619 35.7268 23.7436 35.6963 23.7997 35.6403L23.9528 35.4877C23.9528 35.4877 23.9681 35.4877 23.9783 35.4877C24.0038 35.4877 24.0294 35.4877 24.0549 35.4775C24.0753 35.4724 24.0906 35.4622 24.1059 35.4572C24.1569 35.5335 24.2386 35.5996 24.3662 35.6454C24.4019 35.6556 24.4325 35.6658 24.4683 35.6658C24.5907 35.6658 24.703 35.5844 24.7489 35.4622C24.754 35.4419 24.7592 35.4215 24.7643 35.4012C24.7847 35.3859 24.8051 35.3656 24.8204 35.3452C24.851 35.335 24.8765 35.335 24.902 35.3198C24.9174 35.3096 24.9276 35.2943 24.9429 35.2841C24.9429 35.2892 24.9429 35.2994 24.948 35.3045C24.999 35.4114 25.1113 35.4775 25.2236 35.4775C25.2695 35.4775 25.3154 35.4673 25.3563 35.447C25.4481 35.4012 25.5502 35.3757 25.6523 35.3452C25.8411 35.2892 26.0554 35.2231 26.2443 35.0806C26.2494 35.0806 26.2545 35.0806 26.2596 35.0806C26.2902 35.0806 26.3157 35.0806 26.3463 35.0653C26.6015 34.989 26.9383 34.8873 27.1629 34.6532C27.2701 34.582 27.3772 34.5107 27.4793 34.4293C27.5099 34.4039 27.5354 34.3733 27.5559 34.3428C27.5712 34.3326 27.5916 34.3275 27.6069 34.3123L27.6834 34.2461C27.6834 34.2461 27.7192 34.2258 27.7345 34.2156C27.7651 34.1851 27.8008 34.1545 27.8314 34.124L27.9488 34.0222C27.9488 34.0222 27.9743 33.9917 27.9845 33.9764C27.9896 33.9713 27.9947 33.9663 28.005 33.9612C28.2754 33.895 28.9032 33.493 28.944 33.4523C28.9797 33.4218 29.0001 33.3862 29.0154 33.3455C29.1175 33.3353 29.189 33.2895 29.2553 33.2335H29.337C29.4645 33.2183 29.5666 33.1267 29.6023 33.0096C29.6993 32.9435 29.7554 32.8265 29.735 32.7043C29.735 32.6993 29.735 32.6942 29.7299 32.6891C29.735 32.6789 29.7452 32.6687 29.7503 32.6585C29.7554 32.6585 29.7605 32.6535 29.7657 32.6484C29.7861 32.6484 29.8065 32.6636 29.8269 32.6636C29.8371 32.6636 29.8473 32.6636 29.8626 32.6636C29.9749 32.6484 30.0719 32.5771 30.1127 32.4703C30.1382 32.4092 30.1535 32.3583 30.1739 32.3074C30.2352 32.2362 30.3015 32.1599 30.3577 32.1344C30.4495 32.0886 30.5159 31.992 30.521 31.8851C30.521 31.8291 30.5159 31.7783 30.4903 31.7274C30.5465 31.7121 30.5975 31.6816 30.6383 31.6358L30.8782 31.3407C30.9548 31.2491 30.9599 31.1269 30.919 31.0303C30.9343 31.0201 30.9497 30.9997 30.965 30.9845C30.965 30.9845 30.9752 30.9845 30.9803 30.9845C30.9956 30.9845 31.0109 30.9845 31.0262 30.9845C31.1691 30.9641 31.2661 30.8471 31.2763 30.7097L31.3324 30.6181C31.363 30.5723 31.3681 30.5163 31.363 30.4553C31.3988 30.4451 31.4294 30.4451 31.46 30.4247C31.6029 30.3332 31.6386 30.1398 31.5417 30.0024L31.5161 29.9668C31.5161 29.9668 31.5264 29.9668 31.5315 29.9668C31.5621 29.9668 31.5927 29.9668 31.6233 29.9515C31.6386 29.9464 31.6539 29.9363 31.6692 29.9261C31.8172 29.9159 31.9295 29.804 31.9448 29.6615C32.0571 29.6106 32.1286 29.4987 32.1235 29.3664C32.1643 29.3562 32.2051 29.346 32.2459 29.3155C32.3123 29.2697 32.3429 29.1985 32.3582 29.1272C32.3786 29.117 32.399 29.1069 32.4144 29.0967C32.5317 29.0407 32.5981 28.9237 32.593 28.8016L32.7869 28.6489C32.8124 28.6286 32.8328 28.6031 32.8533 28.5726L32.9502 28.5522C33.0217 28.537 33.0727 28.4912 33.1186 28.4403L33.1697 28.4199C33.2207 28.3996 33.2615 28.3589 33.2921 28.3131C33.3432 28.2927 33.384 28.2622 33.4197 28.2215C33.4453 28.2062 33.4657 28.191 33.4861 28.1808C33.5473 28.1452 33.6086 28.1095 33.6647 28.0739C33.7464 28.023 33.7923 27.9365 33.8025 27.8449C33.8535 27.8195 33.8944 27.7839 33.925 27.7381C33.9607 27.7534 34.0015 27.7635 34.0424 27.7635C34.0628 27.7635 34.0883 27.7635 34.1138 27.7534C34.1393 27.7483 34.1648 27.733 34.1904 27.7177C34.3077 27.7025 34.4047 27.6261 34.4404 27.5193C34.4506 27.5193 34.466 27.5295 34.4762 27.5295C34.517 27.5295 34.5578 27.5193 34.5986 27.504L34.9508 27.3514C35.0324 27.3158 35.0886 27.2496 35.1141 27.1784C35.1294 27.1784 35.1447 27.1885 35.1651 27.1885C35.2519 27.1885 35.3335 27.1529 35.3897 27.0868C35.3999 27.0766 35.3999 27.0613 35.4101 27.0461C35.5479 26.9494 35.6959 26.8578 35.8388 26.7713C35.8388 26.7713 35.8745 26.7967 35.8949 26.8018C35.9255 26.812 35.9613 26.8171 35.9919 26.8171C36.0633 26.8171 36.1246 26.7866 36.1807 26.7408H36.242C36.242 26.7408 36.2573 26.7408 36.2624 26.7408C36.3849 26.7408 36.492 26.6644 36.538 26.5576H36.5533C36.5533 26.5576 36.5839 26.5627 36.5941 26.5627C36.6502 26.5627 36.7064 26.5474 36.7574 26.5118C36.7727 26.5016 36.7982 26.4863 36.8289 26.4609L37.0942 26.3795L37.1044 26.3744L37.4362 26.2777C37.5076 26.2574 37.5638 26.2116 37.6046 26.1505L37.6709 26.1607C37.6709 26.1607 37.6964 26.1607 37.7118 26.1607C37.7985 26.1607 37.8853 26.12 37.9465 26.0538V26.0487C38.0027 26.0437 38.0537 26.0233 38.0996 25.9877C38.1302 25.9877 38.166 25.9826 38.1966 25.9673C38.3548 25.9012 38.4262 25.7231 38.3599 25.5654L38.3089 25.4432L38.416 25.4178C38.4722 25.489 38.5589 25.5348 38.6559 25.5348C38.8192 25.5348 38.9417 25.4076 38.957 25.2499C39.0642 25.3262 39.1816 25.3669 39.2938 25.3669C39.4776 25.3669 39.6664 25.2753 39.8654 25.087C39.9726 25.0463 40.044 24.9497 40.0542 24.8377C40.0951 24.8581 40.141 24.8784 40.1869 24.8784C40.2278 24.8784 40.2686 24.8682 40.3094 24.853C40.3605 24.8326 40.4013 24.797 40.4319 24.7563C40.4982 24.7461 40.5544 24.7003 40.6003 24.6494C40.6054 24.6494 40.6105 24.6494 40.6207 24.6494C40.6667 24.6494 40.7075 24.6393 40.7483 24.6189L41.0137 24.4917C41.1311 24.4357 41.1974 24.3136 41.1872 24.1915C41.1974 24.1915 41.2025 24.1915 41.2076 24.1915C41.2383 24.1915 41.274 24.1864 41.3046 24.1762L41.5343 24.0999C41.6925 24.049 41.7843 23.876 41.7282 23.7132C41.7129 23.6674 41.6874 23.6318 41.6567 23.6012C41.6414 23.5402 41.6108 23.4842 41.5598 23.4435C41.57 23.4181 41.57 23.3926 41.5751 23.3672C41.718 23.3672 41.8405 23.2908 41.9578 23.1942C41.9732 23.2298 41.9987 23.2654 42.0242 23.2908C42.0854 23.3468 42.162 23.3774 42.2385 23.3774C42.3151 23.3774 42.3967 23.3468 42.458 23.2858L42.7642 22.9703C42.805 22.9296 42.8254 22.8787 42.8356 22.8278C42.8969 22.8075 42.9581 22.7769 42.9989 22.721C43.0194 22.6955 43.0347 22.665 43.0551 22.6395L43.0704 22.6294C43.1418 22.5887 43.1878 22.5276 43.2082 22.4564C43.2235 22.4564 43.2388 22.4564 43.2541 22.4462C43.3613 22.4207 43.4481 22.3393 43.4787 22.2325C43.4991 22.1714 43.494 22.1002 43.4736 22.0391L43.6063 21.7745C43.7185 21.7592 43.8206 21.7236 43.8972 21.6727C43.9227 21.6575 43.9482 21.6371 43.9686 21.6168C44.1013 21.5048 44.1779 21.3522 44.2289 21.2046C44.3054 21.1741 44.3667 21.1283 44.4024 21.052L44.4585 20.9298C44.4585 20.9298 44.4585 20.9095 44.4687 20.8993C44.5249 20.8535 44.5606 20.7874 44.5708 20.711C44.6014 20.6856 44.627 20.6551 44.6474 20.6195C44.6984 20.5838 44.7392 20.538 44.7647 20.477C44.8311 20.3091 44.8923 20.1411 44.9536 19.9732C45.0046 19.9529 45.0505 19.9223 45.0863 19.8816C45.1169 19.8562 45.1475 19.8257 45.1679 19.79C45.2088 19.7188 45.2139 19.6374 45.1985 19.5662C45.2036 19.5509 45.2087 19.5356 45.219 19.5204C45.2496 19.5051 45.2802 19.4847 45.3006 19.4746C45.3976 19.4186 45.4486 19.3117 45.4486 19.1998C45.4486 19.1387 45.418 19.0828 45.3823 19.0319L45.4027 18.9963C45.4894 18.9759 45.566 18.925 45.6068 18.8385L45.7446 18.5434C45.765 18.4925 45.7701 18.4416 45.765 18.3958C45.8008 18.3144 45.8059 18.2177 45.7599 18.1363C45.7395 18.0956 45.7038 18.0702 45.6681 18.0396C45.714 17.9837 45.7548 17.9226 45.7752 17.8514C45.8365 17.8005 45.8773 17.7242 45.8824 17.6377C45.8824 17.6377 45.8824 17.6275 45.8824 17.6224C45.9845 17.6122 46.0814 17.5563 46.1274 17.4545L46.1478 17.4087C46.209 17.3731 46.255 17.3171 46.2805 17.2459C46.2958 17.2001 46.2958 17.1492 46.2856 17.1034C46.3264 16.9965 46.3009 16.8795 46.2294 16.793C46.3468 16.7625 46.4438 16.6709 46.4591 16.5437C46.4693 16.4622 46.4846 16.3757 46.4999 16.2943C46.4999 16.274 46.505 16.2587 46.5101 16.2384C46.5152 16.2231 46.5357 16.2129 46.5357 16.1926L46.5612 16.0908C46.5867 16.0043 46.602 15.928 46.6173 15.8567C46.6275 15.7855 46.6122 15.7193 46.5765 15.6634C46.5765 15.6532 46.5765 15.6481 46.5765 15.6379C46.5765 15.6328 46.5765 15.6278 46.5765 15.6227L46.6326 15.5056C46.6581 15.4548 46.6632 15.3988 46.6581 15.3479C46.6632 15.3377 46.6734 15.3275 46.6734 15.3174L46.75 15.1087C46.7755 15.0426 46.7704 14.9714 46.75 14.9052C46.7551 14.8849 46.7551 14.8696 46.7602 14.8492C46.7653 14.8238 46.7755 14.8034 46.7857 14.778C46.7857 14.7526 46.7857 14.7271 46.7959 14.7017C46.8214 14.6661 46.8368 14.6203 46.8419 14.5745L46.8572 14.4371C46.8572 14.3862 46.8572 14.3455 46.8368 14.2997C46.8368 14.2946 46.8368 14.2895 46.8368 14.2844C46.8674 14.2335 46.8878 14.1725 46.8827 14.1063C46.8776 14.0249 46.8725 13.9435 46.8674 13.8621C46.8674 13.8468 46.8674 13.8316 46.8674 13.8163C46.9082 13.7603 46.9337 13.6942 46.9286 13.6229C46.9286 13.5822 46.9184 13.5364 46.9184 13.4957C46.9286 13.4601 46.9388 13.4296 46.9388 13.3889V13.1446L46.9746 13.226ZM5.48335 38.7239C5.5599 38.7239 5.62625 38.6883 5.68239 38.6374C5.7028 38.6679 5.72321 38.6934 5.75894 38.7188C5.83549 38.7748 5.90694 38.7951 5.98349 38.7951C6.03963 38.7951 6.09577 38.785 6.15191 38.7748C6.21825 38.7646 6.27439 38.729 6.31522 38.6832C6.33053 38.6832 6.34584 38.6934 6.36115 38.6934H6.52956L6.53977 38.6984C6.60611 38.6984 6.66225 38.673 6.71329 38.6374C6.74901 38.6527 6.78474 38.6679 6.82046 38.6679C6.8817 38.6679 6.94805 38.6476 6.99908 38.6069L7.13688 38.5051C7.19301 38.4542 7.21853 38.3931 7.23384 38.327C7.29508 38.3066 7.34101 38.271 7.38184 38.215C7.39205 38.215 7.40226 38.215 7.41246 38.215C7.42267 38.215 7.43288 38.215 7.44308 38.215C7.47881 38.3423 7.58598 38.4339 7.72377 38.4389H7.73398C7.89219 38.4389 8.01978 38.3219 8.03509 38.1642C8.03509 38.1642 8.04019 38.1743 8.04529 38.1794C8.10653 38.2405 8.18309 38.271 8.26474 38.271C8.3464 38.271 8.41785 38.2405 8.47909 38.1845C8.48929 38.1743 8.4995 38.1642 8.50971 38.154C8.51992 38.154 8.53012 38.1591 8.54033 38.1591C8.62709 38.1591 8.71385 38.1235 8.77509 38.0471C8.7955 38.0268 8.81592 37.9963 8.83633 37.9555C8.86695 37.9606 8.89247 37.9657 8.92309 37.9657C9.01495 37.9657 9.0864 37.9352 9.13233 37.8996C9.20888 37.8487 9.24461 37.7775 9.26502 37.7113H9.31606C9.41302 37.7062 9.50488 37.6553 9.55592 37.5739C9.56613 37.5587 9.57123 37.5383 9.57633 37.5179C9.59164 37.5179 9.61206 37.5281 9.62737 37.5281C9.65289 37.5281 9.68351 37.5281 9.70902 37.5179C9.83661 37.4823 9.91827 37.3704 9.92847 37.2483C9.94378 37.2483 9.95399 37.2584 9.9693 37.2584C9.99482 37.2584 10.0254 37.2584 10.051 37.2483C10.1275 37.2279 10.2449 37.1668 10.301 36.9888C10.4031 36.9582 10.4899 36.8819 10.5205 36.77V36.7547C10.5205 36.7547 10.5358 36.7394 10.546 36.7343C10.5817 36.7445 10.6123 36.7598 10.6481 36.7598C10.694 36.7598 10.745 36.7496 10.7859 36.7242C10.893 36.6682 10.9543 36.5562 10.9492 36.4392C10.9696 36.4392 10.99 36.4494 11.0104 36.4494C11.0921 36.4494 11.1686 36.4189 11.2299 36.3578C11.2554 36.3324 11.2758 36.2967 11.2911 36.2662C11.3677 36.2357 11.434 36.1848 11.4697 36.1085C11.5054 36.0321 11.5105 35.9558 11.5105 35.8846C11.5667 35.8846 11.6228 35.8642 11.6739 35.8286L11.9443 35.6352C12.0311 35.5742 12.0719 35.4724 12.0668 35.3757C12.0974 35.3859 12.123 35.391 12.1536 35.391C12.2863 35.391 12.4088 35.3045 12.4445 35.1722C12.4547 35.1417 12.4547 35.1111 12.4547 35.0755C12.47 35.0755 12.4853 35.0755 12.5006 35.0755C12.6078 35.0552 12.8119 35.0196 12.8936 34.816C12.9191 34.755 12.9191 34.699 12.914 34.643L13.0824 34.6277C13.1845 34.6176 13.2712 34.5616 13.3223 34.4751C13.3733 34.3886 13.3733 34.2868 13.3325 34.2003C13.3325 34.1952 13.3478 34.1901 13.3478 34.18C13.4907 34.2054 13.6285 34.124 13.6795 33.9866C13.7408 33.9764 13.802 33.9561 13.853 33.9052L14.0368 33.722C14.0368 33.722 14.0572 33.7373 14.0674 33.7424C14.0674 33.8492 14.1082 33.951 14.2052 34.0121C14.2562 34.0426 14.3124 34.0578 14.3685 34.0578C14.4399 34.0578 14.5012 34.0273 14.5573 33.9815C14.7206 34.124 14.8788 34.241 15.037 34.3581L15.1953 34.4751C15.2514 34.5158 15.3126 34.5362 15.379 34.5362C15.3943 34.5362 15.4096 34.526 15.4249 34.526C15.4351 34.6277 15.4964 34.7193 15.5882 34.7702C15.6342 34.7957 15.6801 34.8058 15.7311 34.8058C15.7668 34.8058 15.7975 34.7906 15.8332 34.7804C15.8587 34.9127 15.9659 35.0196 16.1088 35.0297H16.1241C16.1394 35.0704 16.1649 35.101 16.1955 35.1264C16.1598 35.162 16.1292 35.2027 16.1139 35.2384C16.0986 35.274 16.0884 35.3045 16.0884 35.3401C16.0373 35.3554 15.9863 35.3757 15.9455 35.4164C15.9302 35.4317 15.925 35.447 15.9148 35.4622C15.8842 35.4724 15.8485 35.4826 15.823 35.4979C15.7822 35.5233 15.7515 35.5589 15.7311 35.5996C15.6597 35.6454 15.6137 35.7167 15.5984 35.7981C15.5066 35.8184 15.4351 35.8846 15.3943 35.9711C15.3024 36.022 15.2361 36.1136 15.231 36.2255V36.2815C15.185 36.3069 15.1391 36.3324 15.1034 36.3578L15.0421 36.3985C14.9605 36.4494 14.9044 36.5308 14.8941 36.6275L14.8686 36.8463L14.7819 36.8615C14.6798 36.8768 14.6084 36.9633 14.5624 37.0549C14.5216 37.1465 14.5369 37.2737 14.593 37.3602L14.639 37.4314H14.6237C14.4961 37.4009 14.2715 37.3602 14.1337 37.5485C14.1133 37.579 14.1082 37.6095 14.0929 37.6452H14.0368C13.899 37.6553 13.7918 37.7622 13.7612 37.8894L13.7357 37.9047C13.603 37.9759 13.5468 38.1285 13.5928 38.2659C13.5621 38.2812 13.5366 38.2914 13.5111 38.3168C13.5009 38.327 13.5009 38.3423 13.4907 38.3524C13.3631 38.3779 13.261 38.4338 13.21 38.5407C13.1896 38.5916 13.1743 38.6527 13.1845 38.729C13.1845 38.729 13.1743 38.729 13.1743 38.7341C13.1181 38.7849 13.0875 38.8511 13.0824 38.9223C13.062 38.9376 13.0416 38.9529 13.0263 38.9681C13.0263 38.9681 13.0263 38.9681 13.0263 38.9732C13.0161 38.9732 13.011 38.9732 13.0008 38.9732C12.8936 39.0139 12.8272 39.1055 12.8068 39.2124C12.7813 39.2276 12.7507 39.2327 12.7252 39.2531C12.6384 39.3345 12.6078 39.4566 12.6435 39.5736C12.6946 39.7365 12.7558 39.8688 12.8068 39.996C12.8068 40.0062 12.7966 40.0163 12.7966 40.0265C12.7864 40.0977 12.7813 40.169 12.7762 40.2402H12.7456C12.5823 40.1893 12.4139 40.2911 12.373 40.4539C12.3628 40.4896 12.3628 40.5303 12.3679 40.5659C12.3679 40.571 12.3679 40.5761 12.3628 40.5811C12.3322 40.6626 12.3424 40.7542 12.3832 40.8305L12.5057 41.0493C12.5057 41.0493 12.4649 41.1002 12.4445 41.1205C12.3832 41.1968 12.3628 41.3037 12.3883 41.3953C12.3986 41.4258 12.419 41.4462 12.4343 41.4716C12.4088 41.5072 12.3883 41.553 12.3781 41.6039C12.3781 41.6344 12.3781 41.6701 12.3781 41.7006C12.3679 41.7311 12.3628 41.7667 12.3679 41.8024C12.3679 41.8685 12.3934 41.9245 12.4343 41.9754C12.4139 42.0568 12.419 42.1433 12.47 42.2145C12.4955 42.2552 12.5312 42.2858 12.5721 42.3112C12.5772 42.3265 12.5772 42.3417 12.5874 42.357L12.5976 42.3723C12.5772 42.413 12.5619 42.4537 12.5619 42.4995C12.5517 42.647 12.6537 42.7742 12.7915 42.8099C12.7915 42.82 12.7915 42.8302 12.7915 42.8404C12.7915 42.8506 12.7915 42.8658 12.7864 42.876C12.7456 42.9116 12.7099 42.9574 12.6843 43.0185C12.6333 43.1559 12.6792 43.2729 12.7354 43.3747C12.7048 43.4357 12.6946 43.507 12.7099 43.5782C12.6997 43.5986 12.6843 43.6189 12.6741 43.6393C12.6231 43.7716 12.6435 43.9089 12.7303 44.0565C12.7099 44.0972 12.6997 44.1379 12.6946 44.1786C12.6946 44.2193 12.6946 44.255 12.7099 44.2855C12.6997 44.3109 12.6894 44.3313 12.6894 44.3567C12.6384 44.4127 12.6129 44.489 12.618 44.5704C12.5466 44.601 12.4853 44.6518 12.4598 44.7282C12.4496 44.7485 12.4598 44.774 12.4598 44.7994C12.4394 44.8198 12.4241 44.8452 12.4088 44.8706L12.2352 44.9164C12.1689 44.9317 12.1128 44.9673 12.0719 45.0182C12.026 45.0386 11.9852 45.064 11.9545 45.0996C11.9494 45.1098 11.9443 45.12 11.9392 45.1302C11.8627 45.0691 11.7606 45.0386 11.6585 45.0691C11.6432 45.0742 11.6279 45.0844 11.6126 45.0945C11.4646 45.0487 11.3013 45.12 11.2401 45.2675C11.1788 45.1709 11.0563 45.1149 10.939 45.0996C10.8522 45.1047 10.7808 45.1301 10.7246 45.1861C10.7144 45.1709 10.7093 45.1556 10.694 45.1403C10.6838 45.1302 10.6736 45.1302 10.6634 45.12C10.6328 45.064 10.5868 45.0131 10.5205 44.9826C10.4592 44.9571 10.3878 44.947 10.3265 44.9622C10.2857 44.9063 10.2296 44.8656 10.1581 44.835C10.1326 44.8249 10.102 44.8198 10.0714 44.8147C10.051 44.7892 10.0305 44.7638 10.005 44.7434C9.99482 44.7333 9.9744 44.7333 9.95909 44.7231C9.92847 44.6875 9.86213 44.6417 9.76006 44.6264C9.74985 44.6162 9.73964 44.606 9.72944 44.5959C9.72944 44.5755 9.72944 44.5603 9.72433 44.5399C9.69371 44.4483 9.62226 44.3872 9.54061 44.3567C9.5304 44.3007 9.50488 44.2397 9.45895 44.199C9.39771 44.143 9.32116 44.1125 9.24461 44.1125C9.21399 44.0616 9.16806 44.026 9.11192 44.0005C9.10171 43.9802 9.0864 43.9598 9.07109 43.9446C9.16806 43.9191 9.25481 43.8428 9.28544 43.741L9.3773 43.4357C9.40281 43.4306 9.42833 43.4306 9.45385 43.4154C9.56613 43.3492 9.62226 43.222 9.60185 43.0999C9.72944 43.0185 9.78558 42.8557 9.71923 42.7132C9.69371 42.6521 9.64268 42.6114 9.59164 42.5809C9.59164 42.5453 9.59164 42.5096 9.59164 42.474C9.59164 42.4231 9.57123 42.3773 9.55082 42.3366C9.56613 42.2705 9.55592 42.1992 9.5253 42.1331C9.55082 42.0212 9.51509 41.899 9.41813 41.8227C9.39261 41.8024 9.37219 41.7871 9.35178 41.7718C9.32626 41.6751 9.25482 41.609 9.16806 41.5734C9.16806 41.5734 9.16806 41.5734 9.16806 41.5683C9.15785 41.553 9.14764 41.5378 9.13743 41.5225C9.17826 41.4869 9.21399 41.4462 9.2293 41.3902C9.24461 41.3444 9.25481 41.2935 9.27012 41.2426C9.28543 41.1765 9.30585 41.1052 9.33647 41.0187C9.3824 40.8814 9.32626 40.7287 9.19868 40.6575C9.14254 40.6269 9.07619 40.6168 9.01495 40.6219C9.00474 40.5048 8.9333 40.4031 8.81592 40.3623C8.65771 40.3064 8.47909 40.3878 8.42295 40.5506C8.38723 40.6473 8.36681 40.7287 8.3566 40.8101C8.3566 40.8101 8.3464 40.8152 8.34129 40.8203C8.28516 40.7389 8.21371 40.6778 8.11674 40.6626C8.0555 40.6524 7.99936 40.6575 7.94833 40.6727C7.88708 40.6371 7.82074 40.6168 7.74929 40.6269C7.66764 40.6371 7.59108 40.6829 7.54005 40.7542C7.4686 40.8508 7.41246 40.9577 7.35122 41.0595C7.35122 41.0696 7.34101 41.0747 7.33591 41.0849C7.3257 41.0849 7.3155 41.0951 7.30019 41.0951C7.21853 41.0035 7.09094 40.9628 6.96846 41.0086C6.83577 41.0544 6.76432 41.1765 6.76943 41.3088C6.67756 41.2935 6.56018 41.3342 6.47853 41.3953C6.36115 41.3393 6.22335 41.3546 6.12639 41.4513C6.09577 41.38 6.04473 41.319 5.96818 41.2833C5.80997 41.2121 5.63135 41.2833 5.56501 41.436L5.54459 41.4767C5.53439 41.4309 5.52418 41.3851 5.51908 41.3342C5.49356 41.1816 5.36087 41.0798 5.20776 41.0798L5.1159 40.9984C5.1159 40.9984 5.09549 40.9882 5.08528 40.9831C5.05976 40.8763 4.973 40.7898 4.85562 40.7643C4.83521 40.7287 4.80969 40.6931 4.77907 40.6676C4.73825 40.6371 4.69231 40.6168 4.64638 40.6066C4.61066 40.571 4.56983 40.5506 4.5239 40.5354C4.5239 40.5099 4.51369 40.4896 4.50349 40.4641C4.47286 40.3929 4.41673 40.342 4.34528 40.3115C4.35548 40.2555 4.35548 40.1995 4.34017 40.1486C4.31466 40.0672 4.24321 40.0163 4.17176 39.9807C4.15645 39.9044 4.11562 39.8433 4.0799 39.8077C4.06459 39.7924 4.05438 39.7874 4.03907 39.7772C4.03907 39.6805 3.99314 39.5889 3.90128 39.5329C3.89107 39.5279 3.88597 39.5177 3.87576 39.5126C3.91148 39.4414 3.91148 39.365 3.89107 39.2938C3.89107 39.2683 3.89617 39.2429 3.89107 39.2175C3.89107 39.2073 3.89107 39.2022 3.89107 39.192C3.89107 39.1818 3.89107 39.1768 3.88597 39.1717C3.89107 39.1717 3.90128 39.1615 3.90638 39.1564C3.91148 39.1564 3.91659 39.1564 3.92169 39.1564C4.02376 39.136 4.10031 39.0546 4.14114 38.958C4.15645 38.9478 4.16666 38.9325 4.17686 38.9172L4.23811 38.9376C4.23811 38.9376 4.24831 38.9223 4.25342 38.9122L4.53411 38.8664C4.53411 38.8664 4.57493 38.8511 4.60045 38.8409C4.62597 38.8664 4.65149 38.8867 4.68721 38.902L4.80969 38.958C4.85052 38.9783 4.89645 38.9885 4.93728 38.9885C4.93728 38.9885 4.94749 38.9885 4.95259 38.9885C4.9679 38.9885 4.97811 38.9987 4.99342 38.9987C5.01383 38.9987 5.03935 38.9987 5.05976 38.9936C5.16694 38.9681 5.2537 38.8867 5.28942 38.7799C5.28942 38.7799 5.32514 38.785 5.34556 38.785C5.38639 38.785 5.42721 38.7748 5.46294 38.7595C5.46804 38.7595 5.47314 38.7646 5.48335 38.7646V38.7239ZM20.0997 33.7322C20.0997 33.7322 20.0997 33.7322 20.0946 33.7322C20.0946 33.7322 20.0997 33.7322 20.1048 33.7322H20.0997ZM21.0183 33.4625L20.9673 33.4065C20.9213 33.3557 20.8703 33.2946 20.7938 33.203C20.7223 33.1165 20.6151 33.0758 20.508 33.0961C20.4008 33.1114 20.3089 33.1877 20.2681 33.2895L20.2477 33.3404C20.212 33.2539 20.1405 33.1877 20.0486 33.1623L19.8853 33.1165L19.8649 33.1674C19.8649 33.1674 19.8445 33.1725 19.8394 33.1776C19.7578 33.203 19.7271 33.1979 19.7424 33.1979C19.6761 33.0453 19.4975 32.9689 19.3393 33.0351C19.1913 33.0961 19.1249 33.259 19.1709 33.4116C19.1555 33.4014 19.1453 33.3913 19.13 33.3862L19.0688 33.3607C19.0637 33.3099 19.0484 33.2641 19.0126 33.2234C18.9106 33.086 18.7932 33.0198 18.686 32.9995L18.5993 32.8824C18.5482 32.8163 18.4768 32.7756 18.3951 32.7654C18.3135 32.7552 18.2318 32.7756 18.1655 32.8265C18.1297 32.8519 18.1144 32.8773 18.0889 32.9079C18.0532 32.8926 18.0124 32.8824 17.9715 32.8723L17.9562 32.8061C17.9205 32.6433 17.7572 32.5364 17.5939 32.572C17.5326 32.5822 17.4867 32.6178 17.4459 32.6585C17.3744 32.5873 17.2775 32.5517 17.1805 32.567L17.0937 32.5822L16.9508 32.455C16.8233 32.3431 16.6293 32.3583 16.517 32.4855C16.4813 32.5262 16.466 32.572 16.4507 32.6178C16.4405 32.5415 16.4048 32.4652 16.3384 32.4143L16.1904 32.2973C16.0884 32.2159 15.9506 32.2108 15.8434 32.2718C15.8077 32.226 15.7719 32.1802 15.7362 32.1344C15.7975 32.053 15.8179 31.9462 15.777 31.8444C15.7362 31.7477 15.6495 31.6867 15.5576 31.6663C15.5525 31.651 15.5525 31.6358 15.5423 31.6256C15.4657 31.4933 15.379 31.4322 15.2973 31.4119L15.3279 31.3508C15.3943 31.2084 15.3433 31.0404 15.2106 30.959L15.1136 30.898C15.0575 30.8623 14.9962 30.8573 14.935 30.8573C14.9248 30.8471 14.9197 30.8318 14.9095 30.8216L14.8023 30.7199C14.8074 30.6792 14.8074 30.6385 14.8023 30.5978C14.7615 30.4349 14.5981 30.3332 14.4297 30.3739L14.3226 30.3993C14.2715 30.4146 14.2205 30.4248 14.1695 30.44C14.1695 30.44 14.1644 30.4349 14.1592 30.4349C14.1592 30.4349 14.1541 30.4349 14.149 30.4349C14.1439 30.3993 14.1337 30.3688 14.1133 30.3332C14.0623 30.2467 14.0215 30.1602 13.9908 30.0686C13.9653 29.9922 13.9092 29.9363 13.8479 29.9057L13.8684 29.8549C13.9245 29.7175 13.8684 29.5597 13.7459 29.4834C13.7459 29.4376 13.7203 29.3918 13.6948 29.3511C13.7357 29.29 13.7612 29.2137 13.7459 29.1323C13.7357 29.056 13.6948 29 13.6438 28.9542C13.6897 28.8677 13.6948 28.7659 13.6438 28.6743C13.5979 28.5878 13.5621 28.4861 13.5366 28.3894C13.5928 28.369 13.6489 28.3436 13.6846 28.2927C13.7561 28.2062 13.7714 28.0841 13.7255 27.9823C13.6693 27.85 13.6336 27.7432 13.6234 27.6872C13.6285 27.6872 13.6387 27.6872 13.6438 27.6872L13.8071 27.616C13.8632 27.5905 13.9041 27.5549 13.9347 27.5091C14.0215 27.4531 14.0776 27.3514 14.0725 27.2343C14.0725 27.1427 14.0725 27.0664 14.0725 26.985C14.0827 26.9748 14.098 26.9697 14.1082 26.9596C14.2001 26.8782 14.4552 26.6339 14.3328 26.2625C14.3328 26.2523 14.343 26.2421 14.3481 26.237C14.3736 26.2421 14.394 26.2523 14.4195 26.2523C14.5369 26.2523 14.6543 26.181 14.7002 26.064C14.7104 26.0437 14.7206 26.0233 14.7257 26.008C14.7461 25.9928 14.7666 25.9775 14.7819 25.9521L15.037 25.5755C15.0626 25.5348 15.0779 25.4941 15.083 25.4534L15.1238 25.4178C15.1238 25.4178 15.1442 25.3873 15.1544 25.372C15.2106 25.3618 15.2616 25.3364 15.3075 25.3008L15.43 25.1837C15.4606 25.1532 15.4861 25.1176 15.5015 25.082L15.5474 25.0514C15.6239 25.0005 15.6699 24.914 15.6801 24.8224C15.6801 24.8174 15.6801 24.8072 15.6801 24.8021C15.8281 24.8021 15.9557 24.6902 15.9761 24.5375V24.5273C16.0679 24.5171 16.1496 24.4663 16.2006 24.3798C16.2619 24.3543 16.3078 24.3085 16.3384 24.2526L16.4762 24.1559C16.5324 24.1203 16.563 24.0643 16.5834 24.0083C16.5834 24.0083 16.5936 24.0083 16.5987 24.0083C16.7416 23.9523 16.8131 23.7997 16.7773 23.6521C16.7977 23.6267 16.8233 23.6114 16.8386 23.5809C16.8794 23.4944 16.8692 23.3977 16.8284 23.3214C16.8539 23.3265 16.8794 23.3366 16.9049 23.3366C16.9151 23.3366 16.9304 23.3366 16.9406 23.3366C17.0427 23.3265 17.1244 23.2552 17.1703 23.1687C17.2417 23.1229 17.3183 23.0619 17.4153 22.9906C17.4153 22.9906 17.4255 22.9906 17.4306 22.9906C17.4408 22.9906 17.451 22.9906 17.4663 22.9906C17.6398 22.9906 17.7317 22.8583 17.8388 22.7006L17.8695 22.6548C17.8695 22.6548 17.8848 22.6192 17.8899 22.6039C17.9001 22.5988 17.9103 22.5937 17.9154 22.5836L18.0073 22.4665C18.0583 22.4055 18.0838 22.3241 18.0736 22.2426L18.0583 22.0951C18.1246 22.0798 18.1808 22.0442 18.2267 21.9882C18.3696 21.8 18.4308 21.6371 18.4462 21.4997C18.5227 21.3624 18.538 21.1843 18.538 21.0113C18.538 20.9705 18.5278 20.9298 18.5176 20.8942C18.5176 20.8586 18.5176 20.8281 18.5125 20.7925C18.5533 20.7467 18.584 20.6856 18.5891 20.6144C18.5891 20.5991 18.5891 20.5787 18.584 20.5635C18.6095 20.4515 18.6044 20.3498 18.584 20.248C18.5891 20.2378 18.6044 20.2327 18.6095 20.2226C18.6605 20.1157 18.6452 19.9987 18.584 19.9122C18.6197 19.8511 18.6248 19.7799 18.6146 19.7137C18.6299 19.6476 18.6299 19.5763 18.5942 19.5153L18.5431 19.4084C18.5431 19.4084 18.5125 19.3779 18.5023 19.3575C18.5482 19.2761 18.5584 19.1794 18.5227 19.0879C18.5329 18.9912 18.487 18.8945 18.4104 18.8334C18.4666 18.7317 18.4564 18.5994 18.3798 18.5027L18.2012 18.2737C18.2012 18.1211 18.1961 17.9735 18.1808 17.8463L18.1706 17.6987C18.1706 17.6428 18.1451 17.5868 18.1144 17.541L17.946 17.3018C17.9766 17.2611 18.0022 17.2102 18.0073 17.1543C18.0073 17.1034 18.0175 17.0576 18.0277 17.0067L18.0379 16.9355C18.043 16.8999 18.0379 16.8642 18.0328 16.8337C18.0481 16.7218 18.0022 16.6047 17.9052 16.5386L17.65 16.3656C17.6755 16.3198 17.7062 16.274 17.7368 16.2333C17.8082 16.1315 17.8082 15.9992 17.747 15.8974C17.7674 15.8415 17.7776 15.7855 17.7674 15.7244C17.7929 15.6634 17.8082 15.6023 17.8031 15.526C17.7929 15.4446 17.7623 15.3835 17.7164 15.3275C17.747 15.2817 17.7776 15.2309 17.8133 15.1851L17.8593 15.1189C17.9103 15.0477 17.9205 14.9561 17.9052 14.8747C17.9154 14.8034 17.9256 14.722 17.9307 14.6152H17.9103L17.9205 14.5846C17.9613 14.4676 17.9256 14.3506 17.844 14.2692C17.8899 14.2285 17.9205 14.1725 17.9358 14.1114C17.9511 14.0453 17.9664 13.974 17.9868 13.9079L18.0124 13.8214C18.0226 13.7756 18.0226 13.7298 18.0124 13.684C18.0481 13.6179 18.0787 13.5364 18.0634 13.4398C18.0634 13.4296 18.0634 13.4194 18.0583 13.4092C18.1042 13.3533 18.1348 13.2871 18.1348 13.2108L18.1246 12.9614C18.1246 12.9258 18.1093 12.8953 18.094 12.8648L18.1297 12.7935C18.1297 12.7935 18.1297 12.7834 18.1297 12.7783C18.2318 12.7121 18.2828 12.5951 18.2624 12.4781C18.288 12.4628 18.3135 12.4475 18.3339 12.4221C18.4053 12.3356 18.4206 12.2135 18.3798 12.1117L18.3288 11.9896C18.3135 11.959 18.3084 11.9285 18.2931 11.898C18.3543 11.898 18.4104 11.8725 18.4615 11.8318C18.5789 11.7352 18.6044 11.5672 18.5278 11.44C18.5942 11.4197 18.6554 11.3891 18.7013 11.3281C18.732 11.2874 18.7473 11.2416 18.7524 11.1907C18.8085 11.1347 18.8442 11.0584 18.8442 10.9719C18.8851 10.9261 18.9208 10.8701 18.931 10.804C18.9361 10.748 18.9565 10.692 18.9667 10.6411C19.0484 10.6055 19.1147 10.5343 19.1402 10.4376C19.1402 10.4223 19.1402 10.4173 19.1402 10.402C19.1658 10.3664 19.1862 10.3308 19.1964 10.285C19.2117 10.2341 19.2015 10.1832 19.1913 10.1323C19.2372 10.112 19.278 10.0916 19.324 10.0611C19.3342 10.056 19.3495 10.0509 19.3597 10.0407C19.3699 10.0356 19.3699 10.0255 19.375 10.0153C19.4158 9.97966 19.4464 9.93387 19.472 9.87789C19.4924 9.86263 19.5077 9.84736 19.5281 9.82701C19.5842 9.75577 19.5995 9.66927 19.5842 9.57768C19.7016 9.54715 19.7935 9.45556 19.8139 9.33344C19.8853 9.25711 19.9109 9.15534 19.8904 9.05867L19.916 8.97725C19.916 8.97725 19.916 8.93654 19.9211 8.91619C19.9313 8.91619 19.9415 8.9111 19.9517 8.90601C19.9721 8.90601 19.9925 8.91619 20.0129 8.91619C20.0435 8.91619 20.0742 8.91619 20.1048 8.90093C20.2681 8.85004 20.3549 8.67704 20.3038 8.5193L20.263 8.387C20.263 8.387 20.2834 8.36156 20.2885 8.34629C20.314 8.33103 20.3395 8.31576 20.36 8.29032C20.36 8.29032 20.36 8.28523 20.3651 8.28014C20.4008 8.29032 20.4467 8.3005 20.4875 8.3005C20.5233 8.3005 20.5539 8.3005 20.5947 8.28523C20.7989 8.22926 20.8754 8.04608 20.9111 7.93414C20.952 7.88325 20.9928 7.82219 21.0336 7.75604C21.1255 7.73569 21.2122 7.6848 21.2531 7.59321V7.57795C21.3602 7.54742 21.4419 7.47109 21.4674 7.36424C21.4674 7.35915 21.4674 7.35406 21.4674 7.34897C21.6103 7.32862 21.7532 7.25738 21.8808 7.13526C21.9216 7.10473 21.9573 7.06911 21.9829 7.02332C22.0033 6.99787 22.0237 6.97752 22.0441 6.95208C22.0849 6.89611 22.1002 6.83505 22.1002 6.7689C22.1411 6.75363 22.1768 6.73328 22.2125 6.70784C22.2176 6.70784 22.2278 6.70784 22.2329 6.70784C22.2993 6.70784 22.3707 6.68748 22.4269 6.6366L22.4983 6.58063C22.5596 6.56536 22.6157 6.54501 22.6616 6.49412C22.7076 6.44833 22.7229 6.38727 22.7331 6.3313C22.7331 6.3313 22.7382 6.3313 22.7433 6.3313C22.7433 6.3313 22.7841 6.32112 22.8045 6.31603C22.8045 6.31603 22.8045 6.31603 22.8096 6.31603C22.8147 6.31603 22.8198 6.31603 22.8249 6.31603C22.9066 6.31603 22.9831 6.27533 23.0393 6.21426C23.0852 6.16338 23.1158 6.10741 23.1414 6.05652C23.1414 6.05652 23.172 6.05652 23.1822 6.05652C23.3302 6.05652 23.4629 5.94458 23.4833 5.79193C23.4833 5.78684 23.4833 5.77666 23.4833 5.77158C23.5803 5.77158 23.6619 5.7156 23.718 5.63419L24.1825 5.38486C24.1825 5.38486 24.2131 5.40012 24.2335 5.40012C24.2641 5.40012 24.2896 5.40012 24.3203 5.38995L24.4734 5.34415C24.6009 5.30853 24.6877 5.19659 24.6928 5.06429C24.6928 4.99305 24.703 4.92182 24.7081 4.85058H24.7132C24.7132 4.85058 24.7183 4.86585 24.7234 4.87602C24.7847 4.96252 24.8765 5.00323 24.9735 5.00323C25.0347 5.00323 25.096 4.98288 25.1521 4.94726L25.5502 4.6674C25.7033 4.60634 25.8564 4.55545 26.0146 4.49948C26.132 4.48422 26.2494 4.4486 26.3514 4.38245C26.3872 4.36718 26.428 4.35701 26.4637 4.34174C26.5454 4.31121 26.6066 4.25015 26.6372 4.17892C26.6525 4.17892 26.6627 4.17892 26.6781 4.17892C26.7801 4.17892 26.8669 4.12803 26.923 4.0517C26.9485 4.04662 26.9792 4.03644 26.9996 4.02626L27.3007 4.03644H27.3109C27.4487 4.03644 27.5661 3.94994 27.6069 3.81764L27.6222 3.76676C27.6732 3.80237 27.7294 3.82273 27.7906 3.82273C27.857 3.82273 27.9233 3.80237 27.9794 3.75658C28.0458 3.7057 28.0866 3.62937 28.0917 3.54796C28.1121 3.5734 28.1376 3.59884 28.1683 3.61919C28.2193 3.64972 28.2754 3.66499 28.3316 3.66499C28.4183 3.66499 28.4949 3.62428 28.5561 3.55304C28.5868 3.53269 28.6123 3.50725 28.6378 3.47163C28.6582 3.47163 28.6786 3.48181 28.699 3.48181C28.7552 3.48181 28.8062 3.46145 28.8521 3.43601C28.8981 3.46145 28.944 3.47672 28.995 3.47672C29.0205 3.47672 29.0461 3.47672 29.0716 3.46654C29.2043 3.43092 29.337 3.40548 29.4697 3.38004L29.7146 3.32916C29.7861 3.31389 29.8473 3.2681 29.8881 3.21212C29.9341 3.17142 29.9749 3.12053 29.9902 3.05947C29.9902 3.0493 29.9902 3.04421 29.9902 3.03403C30.0055 3.03403 30.0157 3.02385 30.031 3.02385C30.0821 3.13071 30.1892 3.19686 30.3015 3.19686C30.3423 3.19686 30.3832 3.18668 30.4189 3.17142L30.6894 3.05947C30.6894 3.05947 30.6996 3.0493 30.7098 3.04421C30.7251 3.04421 30.7455 3.05438 30.7608 3.05438C30.7863 3.05438 30.8119 3.04421 30.8425 3.03912C30.8782 3.06456 30.919 3.08491 30.965 3.09C30.9803 3.09 30.9956 3.09 31.0109 3.09C31.1487 3.09 31.2661 2.99841 31.3018 2.86611C31.3222 2.88647 31.3477 2.91191 31.3732 2.92209L31.4396 2.9577C31.4855 2.97806 31.5315 2.98823 31.5774 2.98823C31.6233 2.98823 31.6641 2.97297 31.7101 2.9577C31.8377 2.99332 31.9653 2.98823 32.0316 2.98315C32.0673 2.98315 32.0979 2.96788 32.1286 2.9577C32.1592 2.9577 32.1847 2.96788 32.2153 2.96788C32.3225 2.96788 32.4246 2.95262 32.5266 2.92209C32.547 2.93226 32.5726 2.94244 32.5981 2.94753C32.6287 2.9577 32.6593 2.96279 32.695 2.96279C32.7461 2.96279 32.8022 2.94753 32.8481 2.92209H32.8584C32.8992 2.93226 32.94 2.94244 32.991 2.94244C33.0676 2.94244 33.1595 2.92209 33.2717 2.85594C33.3177 2.8305 33.3483 2.79488 33.3738 2.75417C33.384 2.75417 33.3993 2.75417 33.4095 2.75417C33.4248 2.76943 33.4402 2.7847 33.4606 2.79488L33.6086 2.8712C33.6494 2.89156 33.6902 2.90173 33.7311 2.90173C33.8178 2.90173 33.8995 2.85594 33.9658 2.79488C33.976 2.79488 33.9913 2.79996 34.0015 2.79996C34.0219 2.79996 34.0373 2.78979 34.0577 2.78979C34.0934 2.80505 34.1291 2.81523 34.1648 2.81523C34.1751 2.8305 34.1751 2.85085 34.1904 2.86611C34.2516 2.94244 34.3384 2.98315 34.4302 2.98315C34.4966 2.98315 34.5629 2.96279 34.6191 2.917L34.8895 2.70329C34.9508 2.65749 34.9814 2.58625 34.9967 2.50993C35.012 2.50993 35.0222 2.49975 35.0375 2.49975C35.0631 2.53028 35.0988 2.56081 35.1396 2.58116C35.1345 2.6117 35.1243 2.63714 35.1243 2.67276C35.1294 2.76943 35.1804 2.85594 35.2621 2.91191L35.3642 2.97806C35.4152 3.01368 35.4764 3.02894 35.5326 3.02894C35.6295 3.02894 35.7265 2.98315 35.7878 2.89156C35.798 2.87629 35.798 2.86103 35.8082 2.84576C35.8592 2.88138 35.9204 2.90682 35.9868 2.90682C36.0123 2.90682 36.0378 2.90682 36.0633 2.89664C36.1042 2.917 36.145 2.92717 36.196 2.92717C36.293 2.92717 36.3746 2.88138 36.4257 2.81014L36.4461 2.82541C36.4461 2.82541 36.4461 2.8305 36.4512 2.83558C36.4155 2.93735 36.4257 3.05438 36.4971 3.14089C36.5329 3.20195 36.6043 3.32407 36.7421 3.35969C36.8493 3.39022 36.9564 3.41566 37.0687 3.43601C37.1453 3.45128 37.2167 3.46654 37.2933 3.4869C37.3188 3.49198 37.3494 3.49707 37.3749 3.49707C37.3953 3.49707 37.4158 3.49198 37.4362 3.4869C37.4719 3.54796 37.5229 3.59884 37.5995 3.62428C37.6352 3.63446 37.6658 3.64464 37.7015 3.64464C37.7067 3.64464 37.7118 3.64464 37.7169 3.64464C37.7271 3.64972 37.7322 3.66499 37.7475 3.67008L37.9261 3.75658C37.9669 3.77693 38.0129 3.78711 38.0537 3.78711C38.1353 3.78711 38.2068 3.7464 38.2629 3.68534C38.268 3.68534 38.2731 3.68534 38.2782 3.68534C38.3089 3.72096 38.3446 3.75149 38.3905 3.77184C38.4262 3.78711 38.4671 3.79729 38.5028 3.79729C38.5436 3.85835 38.6049 3.90414 38.6814 3.91941C38.712 3.94485 38.7478 3.96011 38.7886 3.97029C38.809 4.03135 38.8447 4.08732 38.9009 4.12294C39.0489 4.21962 39.1867 4.33157 39.3245 4.43842L39.3857 4.48422C39.4265 4.51475 39.4776 4.5351 39.5235 4.54019C39.5541 4.62669 39.6102 4.70302 39.7021 4.73355C39.7378 4.74372 39.7736 4.7539 39.8042 4.7539C39.8654 4.7539 39.9267 4.72846 39.9777 4.69284C39.993 4.73864 40.0134 4.78443 40.0491 4.82005L40.1614 4.93199C40.1971 4.96761 40.238 4.99305 40.2839 5.00832C40.3196 5.11009 40.4115 5.18641 40.5238 5.20677C40.5391 5.20677 40.5544 5.20677 40.5697 5.20677C40.6105 5.20677 40.6514 5.19659 40.6871 5.18132C40.733 5.23221 40.7943 5.26274 40.8606 5.278C40.881 5.3238 40.9065 5.37468 40.9474 5.41539V5.52733C40.9576 5.61892 41.0035 5.70543 41.08 5.75631C41.1209 5.78684 41.1719 5.80211 41.2229 5.80719C41.2842 5.9344 41.3556 6.02091 41.4322 6.08197C41.4679 6.13794 41.5138 6.18373 41.5751 6.20918C41.6108 6.22444 41.6516 6.22953 41.6874 6.22953C41.7078 6.22953 41.7231 6.21935 41.7384 6.21426C41.7537 6.24479 41.7741 6.27024 41.7945 6.29568C41.7843 6.37709 41.8047 6.46359 41.8609 6.52974C41.9017 6.58063 41.9578 6.60607 42.0191 6.62133C42.014 6.66204 42.014 6.70275 42.0191 6.74346C42.0395 6.84013 42.1058 6.91137 42.1875 6.95208C42.213 7.09455 42.3355 7.20141 42.4835 7.20141H42.5601C42.5601 7.20141 42.5345 7.25229 42.5345 7.27774L42.5192 7.39477C42.5039 7.53724 42.5907 7.66445 42.7183 7.71025C42.708 7.8171 42.754 7.92396 42.8458 7.98502C42.902 8.02573 42.953 8.06643 43.0092 8.10714L43.0602 8.14785C43.101 8.3412 43.1623 8.52439 43.2184 8.68721L43.2388 8.74827C43.2541 8.78389 43.2694 8.81951 43.295 8.85004L43.3511 8.91619C43.3613 9.01287 43.4225 9.0892 43.5042 9.14008C43.5144 9.17061 43.5348 9.20114 43.5552 9.22658C43.545 9.27238 43.5399 9.31817 43.5552 9.36906C43.5654 9.41485 43.5807 9.46065 43.591 9.50135C43.6063 9.55733 43.6267 9.61839 43.6318 9.67945C43.6369 9.73033 43.6624 9.77104 43.6879 9.81175C43.6981 9.85245 43.7134 9.88807 43.7338 9.92369L43.7134 9.95931C43.6369 10.1018 43.6879 10.2748 43.8257 10.3613C43.8257 10.4223 43.8512 10.4732 43.887 10.5241C43.841 10.5903 43.8155 10.6768 43.8359 10.7633C43.8512 10.8447 43.9023 10.9057 43.9635 10.9465C43.9227 11.038 43.9227 11.1398 43.9788 11.2314L44.137 11.4858C44.1217 11.5164 44.1115 11.5469 44.1013 11.5774C44.0911 11.5978 44.0809 11.6232 44.0707 11.6436C44.0656 11.6537 44.0503 11.6588 44.0452 11.6741C44.0452 11.6843 44.0452 11.6944 44.0452 11.7097C44.0452 11.7199 44.035 11.7301 44.0299 11.7453C43.9788 11.8624 44.0094 11.9947 44.0962 12.0812C44.0809 12.1524 44.0758 12.2185 44.0707 12.2694L44.0605 12.3661C44.0554 12.4119 44.0605 12.4577 44.0707 12.4984C44.0094 12.5849 43.9941 12.6969 44.0401 12.7986L44.137 13.0022C44.137 13.0022 44.1217 13.0174 44.1166 13.0327C44.0452 13.2006 44.035 13.338 44.0656 13.4499C44.035 13.5263 44.0247 13.6128 44.0503 13.7145C44.0554 13.74 44.0707 13.7705 44.086 13.801C44.0298 13.8672 43.9992 13.9486 44.0094 14.0402L44.0605 14.4116C44.0605 14.4116 44.0452 14.4625 44.035 14.488C44.0247 14.5083 44.0247 14.5236 44.0247 14.5439C43.9176 14.6304 43.8819 14.7678 43.9329 14.895C43.8972 14.9154 43.8665 14.9408 43.841 14.9714C43.7798 15.0629 43.7696 15.18 43.8206 15.2767C43.8206 15.3072 43.8308 15.3377 43.841 15.3683C43.7543 15.4446 43.7236 15.5616 43.7543 15.6736C43.6981 15.7244 43.6624 15.8008 43.6624 15.8822C43.6012 15.9789 43.6012 16.101 43.6624 16.1977C43.6114 16.2231 43.5705 16.2536 43.5399 16.3045C43.5093 16.3554 43.494 16.4114 43.494 16.4673C43.4327 16.5233 43.397 16.6098 43.397 16.6963L43.4072 17.0729C43.4072 17.0729 43.4123 17.0881 43.4123 17.0932C43.2592 17.139 43.1929 17.2917 43.1572 17.3832C43.1572 17.3832 43.1572 17.3934 43.1572 17.3985L43.1163 17.4545C43.1163 17.4545 43.1163 17.4748 43.1061 17.4799C43.0857 17.5155 43.0704 17.5562 43.0653 17.597C43.0653 17.6122 43.0653 17.6275 43.0653 17.6428C43.0653 17.6835 43.0755 17.7242 43.0908 17.7598C43.0908 17.7649 43.0908 17.77 43.0908 17.7751C43.0908 17.7751 43.0908 17.7903 43.0857 17.7954C43.0551 17.8005 43.0245 17.8107 42.9938 17.8208C42.9071 17.8616 42.8612 17.9277 42.8254 17.9989C42.8101 18.0346 42.7948 18.0651 42.7846 18.1007C42.754 18.1211 42.7285 18.1465 42.7029 18.177C42.6621 18.2381 42.6519 18.3042 42.657 18.3755C42.6264 18.4213 42.6009 18.4671 42.5907 18.518C42.5192 18.5536 42.4682 18.6197 42.4427 18.696C42.3661 18.752 42.3202 18.8385 42.3202 18.9403C42.2436 18.9963 42.1875 19.0777 42.1824 19.1794L42.1722 19.3321C42.1722 19.3321 42.1467 19.3372 42.1365 19.3474C42.0191 19.4186 41.9783 19.556 42.0089 19.6832C41.9374 19.7951 41.8609 19.902 41.7741 20.0038C41.7282 20.0546 41.7129 20.1157 41.7078 20.1768C41.6823 20.2022 41.6618 20.2327 41.6465 20.2684C41.5751 20.2531 41.4934 20.2582 41.422 20.2989L41.2434 20.4007C41.2076 20.421 41.177 20.4515 41.1515 20.4821C41.126 20.4973 41.1056 20.5177 41.0851 20.538C41.0341 20.6042 41.0137 20.6856 41.029 20.767L41.0392 20.8383C41.0392 20.8383 41.0341 20.8484 41.029 20.8586C41.0188 20.8739 41.0188 20.8891 41.0137 20.9044L40.9831 20.94C40.8147 20.9197 40.6514 21.0316 40.6258 21.1944C40.6258 21.2046 40.6258 21.2148 40.6258 21.225C40.4166 21.2555 40.2278 21.3776 40.0593 21.5862C39.993 21.6168 39.9318 21.6575 39.8654 21.7033L39.8144 21.7389C39.748 21.7847 39.7123 21.8508 39.697 21.9221C39.6511 21.9272 39.6051 21.9424 39.5643 21.9679C39.5643 21.9679 39.5184 21.9984 39.498 22.0188L39.2785 22.1154C39.1918 22.1511 39.1356 22.2274 39.1152 22.3088C39.0846 22.3088 39.054 22.3088 39.0233 22.3241C38.9315 22.3241 38.8345 22.3597 38.7682 22.4258L38.6304 22.5632C38.6304 22.5632 38.6304 22.5632 38.6304 22.5683C38.4722 22.553 38.3191 22.6548 38.2884 22.8176C38.2884 22.8329 38.2884 22.8431 38.2884 22.8583C38.1456 22.8176 37.9924 22.8736 37.9261 23.011C37.9159 23.0313 37.9159 23.0517 37.9108 23.0721C37.8598 23.0263 37.7985 22.9957 37.722 22.9906C37.574 22.9906 37.4413 23.0924 37.4107 23.24C37.3494 23.1993 37.2729 23.184 37.1963 23.1993L37.0024 23.2349C36.9258 23.2501 36.8697 23.2959 36.8238 23.3519C36.7982 23.3621 36.7727 23.3723 36.7523 23.3926L36.6349 23.4944C36.5431 23.474 36.4461 23.4893 36.3695 23.5554C36.3491 23.5707 36.344 23.586 36.3287 23.6063C36.2675 23.5962 36.2011 23.6063 36.145 23.6369L35.9817 23.7234C35.8796 23.7284 35.7724 23.7742 35.6755 23.8862L35.5785 23.9371C35.502 23.9625 35.4254 23.993 35.354 24.0185H35.3029C35.2315 24.0236 35.1753 24.0541 35.1243 24.0999C34.9865 24.1508 34.8436 24.1966 34.7058 24.2475C34.6446 24.2475 34.5833 24.2678 34.5323 24.3085C34.4762 24.3289 34.4251 24.3441 34.3741 24.3645C34.2771 24.4001 34.2108 24.4866 34.1853 24.5782H34.0577C34.0577 24.5782 34.0322 24.5833 34.0219 24.5884C33.8688 24.5884 33.7362 24.6698 33.6086 24.8377C33.5779 24.8682 33.5677 24.9039 33.5524 24.9446C33.435 24.8988 33.2973 24.9293 33.2105 25.0362L33.0727 25.2041C32.9706 25.2041 32.8788 25.26 32.8226 25.3466L32.8073 25.3364C32.695 25.2651 32.5624 25.2753 32.4603 25.3516C32.348 25.4127 32.2766 25.5348 32.297 25.6671V25.6773C32.2408 25.7078 32.1949 25.7485 32.1592 25.7842C32.1388 25.7689 32.1184 25.7536 32.0979 25.7434C31.9652 25.6875 31.8172 25.7434 31.7356 25.8554C31.6795 25.8707 31.6284 25.891 31.5825 25.9368C31.5264 25.9979 31.4957 26.0793 31.5008 26.1556C31.4651 26.1454 31.4294 26.1403 31.3937 26.1454C31.312 26.1556 31.2355 26.1963 31.1895 26.2625C31.067 26.4151 31.0313 26.5627 31.0058 26.6746C30.9956 26.7051 30.9854 26.7509 30.9548 26.7713C30.8782 26.7967 30.8221 26.8527 30.7915 26.9189C30.7251 26.9087 30.6639 26.9189 30.6026 26.9494C30.5771 26.9494 30.5567 26.9494 30.5414 26.9545C30.4036 26.9799 30.327 27.0817 30.2454 27.1784C30.2097 27.2191 30.1892 27.275 30.1841 27.3259C30.1331 27.3819 30.077 27.4379 30.0259 27.4938C29.929 27.6007 29.9239 27.7483 30.0004 27.8602C29.9034 27.9365 29.8065 28.0129 29.6993 28.1045C29.6789 28.1197 29.6687 28.1401 29.6534 28.1604C29.6177 28.1706 29.587 28.1757 29.5513 28.1859C29.4237 28.2215 29.3421 28.3334 29.3319 28.4555C29.3165 28.481 29.3063 28.5115 29.2961 28.5421C29.2502 28.5522 29.2094 28.5675 29.1685 28.5929C29.0665 28.6693 29.0257 28.8016 29.0614 28.9186C29.0461 28.9288 29.0308 28.9288 29.0205 28.9389C28.8725 29.0611 28.699 29.1985 28.6888 29.4274C28.6888 29.4274 28.6888 29.4325 28.6888 29.4376C28.5816 29.5139 28.5 29.6208 28.4285 29.7378C28.3979 29.7887 28.3877 29.8498 28.3877 29.9057C28.3826 29.9057 28.3775 29.9108 28.3724 29.9159L28.2601 29.977C28.1581 30.0329 28.107 30.1398 28.107 30.2467C28.0152 30.2823 27.9437 30.3535 27.9182 30.4502L27.9029 30.5062C27.811 30.557 27.7396 30.6486 27.7039 30.7758C27.6681 30.8166 27.6477 30.8624 27.6375 30.9132C27.6171 30.9285 27.5967 30.9387 27.5763 30.959C27.5099 30.959 27.4436 30.9845 27.3874 31.0303C27.2752 31.132 27.1476 31.2389 27.02 31.3356C26.9639 31.3763 26.9332 31.4322 26.9179 31.4933C26.8261 31.4933 26.7393 31.5289 26.6832 31.5951C26.6321 31.6154 26.5862 31.6409 26.5505 31.6867L26.4025 31.8698C26.4025 31.8698 26.4025 31.8749 26.4025 31.88C26.2902 31.9004 26.1932 31.9767 26.1575 32.0937L26.1371 32.1599C26.1065 32.1395 26.0707 32.1294 26.035 32.1192L25.9738 32.109C25.8513 32.0886 25.7339 32.1395 25.6676 32.2413C25.6625 32.2515 25.6523 32.2617 25.6472 32.2718C25.4532 32.2718 25.2797 32.3227 25.1317 32.4296C25.0909 32.4296 25.0449 32.4296 25.0041 32.4499C24.8459 32.511 24.7643 32.6789 24.8255 32.8366C24.8408 32.8824 24.8714 32.9333 24.9072 32.9791C24.8816 32.9842 24.8612 32.9944 24.8408 33.0046C24.7183 33.0351 24.6265 33.1419 24.6163 33.2691C24.5754 33.203 24.5091 33.1572 24.4325 33.1369C24.3713 33.1012 24.3049 33.0809 24.2284 33.0961C24.1876 33.0402 24.1263 32.9995 24.0498 32.9842C23.963 32.9638 23.8763 32.9893 23.8048 33.0402C23.7231 33.0096 23.6313 33.0147 23.5547 33.0554C23.4833 32.9995 23.3914 32.9689 23.2945 32.9842C23.1873 33.0096 23.1107 33.086 23.075 33.1877C23.0648 33.1877 23.0546 33.1877 23.0444 33.1877L22.7739 33.2335C22.7076 33.2437 22.6514 33.2793 22.6055 33.3251C22.5596 33.3048 22.5034 33.2895 22.4473 33.2946C22.3962 33.2946 22.3554 33.32 22.3146 33.3455C22.2329 33.2946 22.136 33.2742 22.039 33.3149C21.942 33.3506 21.8502 33.3862 21.7583 33.4167H21.6409C21.5491 33.4167 21.4674 33.4625 21.4113 33.5337C21.396 33.5337 21.3858 33.5439 21.3704 33.5439C21.3245 33.5287 21.2786 33.5185 21.2327 33.5236C21.1867 33.5236 21.1408 33.5287 21.1 33.5337C21.0898 33.493 21.0693 33.4523 21.0387 33.4218L21.0183 33.4625ZM15.1085 43.7461C15.1085 43.7461 15.0983 43.7207 15.0881 43.7054C15.0881 43.7054 15.0881 43.7054 15.0932 43.7003C15.1085 43.7105 15.1187 43.7207 15.134 43.7258C15.1238 43.7309 15.1187 43.741 15.1085 43.7512V43.7461ZM20.3447 35.1773C20.3447 35.1773 20.3549 35.1976 20.36 35.2078C20.3498 35.2078 20.3447 35.2027 20.3344 35.1976C20.3344 35.1926 20.3344 35.1824 20.3395 35.1773H20.3447Z" fill="#424242"/>
<path d="M34.2771 19.2812C34.2771 19.2812 34.2771 19.2761 34.2771 19.271C34.2771 19.2507 34.2873 19.2303 34.2873 19.21C34.2873 19.1591 34.2822 19.1082 34.2618 19.0624C34.2618 19.0471 34.2618 19.037 34.2618 19.0217C34.3026 18.9403 34.318 18.8487 34.2924 18.7571C34.2771 18.6909 34.2414 18.6401 34.1955 18.5943C34.1955 18.579 34.1955 18.5637 34.1904 18.5536C34.2312 18.4416 34.2159 18.3144 34.1444 18.2076C34.124 18.177 34.0985 18.1567 34.073 18.1363C34.022 17.9888 33.8893 17.8972 33.7413 17.8819C33.726 17.8666 33.7106 17.8514 33.6953 17.8412C33.6953 17.7292 33.6494 17.6224 33.5575 17.5511C33.5371 17.5054 33.5065 17.4596 33.4555 17.4189C33.3993 17.3731 33.1288 17.1899 32.7665 17.4697C32.741 17.3985 32.6951 17.3425 32.6338 17.2967C32.6134 17.2458 32.5828 17.2001 32.5368 17.1593C32.4042 17.0423 32.2204 17.0423 32.0826 17.1339C31.9857 17.0423 31.8479 17.0016 31.7152 17.0372C31.6693 17.0525 31.6233 17.0728 31.5876 17.1034C31.5008 17.1288 31.4345 17.1848 31.3835 17.256C31.363 17.2764 31.3426 17.2916 31.3273 17.3171C31.2763 17.3222 31.2202 17.3374 31.1742 17.368C31.1487 17.3832 31.1334 17.4087 31.1181 17.429C31.0619 17.429 31.0007 17.4443 30.9497 17.4748C30.9139 17.4952 30.8884 17.5257 30.8629 17.5511C30.8527 17.5562 30.8425 17.5613 30.8323 17.5664C30.7864 17.602 30.7608 17.6478 30.7353 17.6987C30.6945 17.7242 30.6537 17.7598 30.6282 17.8056C30.5924 17.8361 30.5618 17.8717 30.5363 17.9124C30.5006 17.948 30.4699 17.9887 30.4495 18.0396C30.4342 18.0702 30.4342 18.1058 30.4291 18.1414C30.373 18.1872 30.3219 18.2483 30.3015 18.3246C30.3015 18.3246 30.3015 18.3297 30.3015 18.3348C30.2862 18.3653 30.2709 18.3958 30.2607 18.4264C30.2607 18.4365 30.2505 18.4467 30.2454 18.4569C30.2097 18.5485 30.2199 18.6451 30.2556 18.7317C30.179 18.7774 30.1229 18.8538 30.1025 18.981C30.0923 19.0319 30.0974 19.0777 30.1025 19.1184C30.1025 19.1184 30.1025 19.1235 30.1025 19.1285C30.1025 19.1387 30.0974 19.1489 30.0923 19.1591C30.0923 19.21 30.0974 19.2608 30.1178 19.3066C30.1178 19.3626 30.1178 19.4186 30.1433 19.4746C30.1433 19.4796 30.1433 19.4847 30.1433 19.4898V19.5C30.1433 19.5 30.1433 19.5102 30.1433 19.5153C30.1433 19.5356 30.1484 19.556 30.1535 19.5763C30.1535 19.5916 30.1484 19.6069 30.1535 19.6221C30.1535 19.6577 30.1739 19.6934 30.1893 19.729C30.1893 19.7544 30.1893 19.7849 30.1944 19.8155C30.1739 19.8816 30.1688 19.9478 30.179 20.019C30.179 20.019 30.179 20.0292 30.1841 20.0292C30.1841 20.0699 30.1944 20.1157 30.2148 20.1564C30.2301 20.192 30.2505 20.2225 30.276 20.248C30.276 20.2582 30.2862 20.2683 30.2862 20.2734C30.2862 20.2887 30.2862 20.2989 30.2964 20.3141L30.3168 20.3599C30.373 20.477 30.4801 20.538 30.5975 20.5533C30.572 20.6754 30.5975 20.8026 30.6945 20.8993C30.7659 20.9705 30.8527 21.0011 30.9446 21.0062C30.965 21.1283 31.0466 21.2402 31.1691 21.2911C31.2202 21.3115 31.2712 21.3216 31.3171 21.3216C31.3835 21.3216 31.4498 21.3013 31.5111 21.2657C31.5774 21.3674 31.6948 21.4387 31.8224 21.4387C31.8275 21.4387 31.8326 21.4387 31.8377 21.4387C31.8836 21.4387 31.9244 21.4234 31.9653 21.4081C31.9959 21.4183 32.0265 21.4234 32.0571 21.4234C32.1235 21.459 32.1949 21.4794 32.2664 21.4743C32.297 21.4794 32.3276 21.4845 32.3531 21.4845C32.3735 21.4845 32.3888 21.4794 32.4093 21.4743C32.4501 21.4845 32.4858 21.4896 32.5215 21.4896C32.6185 21.4896 32.7002 21.4539 32.7563 21.4132C32.8175 21.3725 32.8584 21.3216 32.889 21.2657C32.9298 21.2809 32.9757 21.2962 33.0217 21.2962C33.1033 21.2962 33.1901 21.2708 33.2615 21.2148C33.3177 21.1995 33.3738 21.1792 33.4197 21.1385C33.4504 21.113 33.4708 21.0825 33.4912 21.0469C33.4963 21.0469 33.5065 21.0418 33.5116 21.0367C33.532 21.0214 33.5473 21.0011 33.5626 20.9807C33.5729 20.9705 33.5882 20.9654 33.6035 20.9553C33.6239 20.94 33.629 20.9197 33.6443 20.8993C33.6647 20.884 33.6902 20.8739 33.7055 20.8535C33.7157 20.8433 33.7157 20.8281 33.726 20.8179C33.7668 20.7874 33.8025 20.7466 33.828 20.7009C33.8433 20.6856 33.8586 20.6703 33.874 20.6551C33.874 20.6551 33.874 20.6551 33.8791 20.6551C33.8995 20.6296 33.9046 20.6042 33.9148 20.5787C33.9148 20.5736 33.9199 20.5686 33.925 20.5635C33.925 20.5584 33.9301 20.5533 33.9352 20.5482C33.9709 20.5075 33.9964 20.4617 34.0117 20.4057C34.0679 20.365 34.1189 20.309 34.1495 20.2378C34.17 20.1818 34.1751 20.131 34.1751 20.075C34.1904 20.0495 34.2006 20.0241 34.2108 19.9936C34.2465 19.9478 34.2822 19.902 34.2924 19.8409C34.3026 19.7951 34.3026 19.7493 34.2975 19.7035C34.2975 19.6679 34.2975 19.6374 34.2975 19.6018C34.3129 19.5661 34.3282 19.5305 34.3333 19.4898C34.3435 19.4135 34.3231 19.3473 34.2975 19.2863L34.2771 19.2812Z" fill="white"/>
<path d="M36.7217 10.7633C36.8033 10.7633 36.8901 10.7379 36.9615 10.6819C37.0177 10.6666 37.0738 10.6463 37.1198 10.6056C37.1504 10.5801 37.1708 10.5496 37.1912 10.514C37.1963 10.514 37.2065 10.5089 37.2116 10.5038C37.232 10.4885 37.2473 10.4682 37.2627 10.4478C37.2729 10.4377 37.2882 10.4326 37.3035 10.4224C37.3239 10.4071 37.329 10.3868 37.3443 10.3664C37.3647 10.3512 37.3902 10.341 37.4055 10.3206C37.4158 10.3104 37.4158 10.2952 37.426 10.285C37.4668 10.2545 37.5025 10.2138 37.528 10.168C37.5433 10.1527 37.5587 10.1374 37.574 10.1171C37.574 10.1171 37.574 10.1171 37.5791 10.1171C37.5944 10.0967 37.5995 10.0764 37.6097 10.056C37.6097 10.0459 37.6199 10.0408 37.625 10.0306C37.625 10.0255 37.6301 10.0204 37.6352 10.0153C37.6709 9.97461 37.6964 9.92882 37.7118 9.87285C37.7679 9.83214 37.8189 9.77617 37.8496 9.70493C37.87 9.64896 37.8751 9.59807 37.8751 9.5421C37.8904 9.51666 37.9006 9.49122 37.9108 9.46578C37.9465 9.41998 37.9822 9.37419 37.9975 9.31313C38.0078 9.26733 38.0078 9.22153 38.0027 9.17574C38.0027 9.14012 38.0027 9.10959 38.0027 9.07397C38.018 9.03835 38.0333 9.00273 38.0384 8.96203C38.0486 8.89079 38.0282 8.81955 38.0027 8.75849C38.0027 8.75849 38.0027 8.7534 38.0027 8.74832C38.0027 8.72796 38.0129 8.70761 38.0129 8.68726C38.0129 8.63637 38.0027 8.58549 37.9873 8.5346C37.9873 8.52443 37.9873 8.50916 37.9873 8.49899C38.0282 8.41757 38.0435 8.32598 38.018 8.23439C38.0027 8.16824 37.9669 8.11736 37.921 8.07156C37.921 8.0563 37.921 8.04612 37.921 8.03085C37.9618 7.91891 37.9465 7.78661 37.8751 7.68485C37.8547 7.65431 37.8291 7.63396 37.8036 7.61361C37.7526 7.46605 37.6199 7.37445 37.4719 7.35919C37.4566 7.34392 37.4413 7.32866 37.426 7.31848C37.426 7.20654 37.38 7.10477 37.2933 7.02844C37.2729 6.98265 37.2422 6.93685 37.1912 6.89106C37.1351 6.84526 36.8595 6.66208 36.4971 6.94194C36.4716 6.87071 36.4257 6.81473 36.3644 6.76894C36.344 6.71805 36.3134 6.67226 36.2675 6.63664C36.1348 6.51961 35.9511 6.51961 35.8133 6.6112C35.7163 6.51961 35.5785 6.4789 35.4458 6.51452C35.3999 6.52978 35.354 6.55014 35.3182 6.58067C35.2315 6.60611 35.1651 6.66208 35.1192 6.73332C35.0937 6.75367 35.0784 6.77403 35.058 6.79438C35.0069 6.79947 34.9508 6.81473 34.9048 6.84526C34.8793 6.86053 34.864 6.88597 34.8436 6.90632C34.7875 6.90632 34.7262 6.92159 34.6752 6.95212C34.6395 6.97247 34.614 6.99791 34.5884 7.02844C34.5782 7.03353 34.568 7.03862 34.5578 7.0488C34.5119 7.08442 34.4813 7.1353 34.4608 7.1811C34.42 7.20654 34.3792 7.24216 34.3537 7.28795C34.3128 7.31848 34.2822 7.3541 34.2618 7.39481C34.2261 7.43043 34.1955 7.47113 34.1751 7.52202C34.1597 7.55255 34.1597 7.58817 34.1546 7.6187C34.0985 7.66449 34.0475 7.72555 34.0271 7.80188C34.0271 7.80188 34.0271 7.80697 34.0271 7.81205C34.0066 7.84258 33.9964 7.87312 33.9862 7.90873C33.9862 7.91382 33.976 7.91891 33.976 7.92909C33.976 7.92909 33.976 7.93418 33.9709 7.93926C33.9352 8.03085 33.9454 8.12753 33.9811 8.21404C33.9046 8.25983 33.8484 8.33616 33.828 8.46337C33.8178 8.51425 33.8229 8.56005 33.828 8.60075C33.828 8.60075 33.828 8.60584 33.828 8.61093C33.828 8.62111 33.8178 8.63128 33.8178 8.64655C33.8178 8.69743 33.8229 8.74832 33.8433 8.79411C33.8433 8.85008 33.8433 8.90605 33.8688 8.96203C33.8688 8.96712 33.8688 8.9722 33.8688 8.97729V8.98747C33.8688 8.98747 33.8688 8.99765 33.8688 9.00782C33.8688 9.04344 33.8791 9.07397 33.8893 9.10959H33.8739C33.8739 9.1503 33.8944 9.18083 33.9097 9.21645C33.9097 9.24189 33.9097 9.27242 33.9148 9.30295C33.8944 9.36401 33.8842 9.43525 33.8995 9.50139C33.8995 9.50139 33.8995 9.51157 33.9046 9.51666C33.9046 9.56246 33.9148 9.60316 33.9352 9.64896C33.9505 9.68458 33.9709 9.71002 33.9913 9.73546C33.9913 9.74564 34.0015 9.75581 34.0066 9.76599C34.0066 9.78126 34.0066 9.79143 34.0168 9.8067L34.0373 9.85249C34.0934 9.96953 34.1955 10.0255 34.3128 10.0408C34.2873 10.1629 34.3179 10.2901 34.4098 10.3868C34.4813 10.458 34.5731 10.4936 34.665 10.4987C34.6905 10.6157 34.7722 10.7175 34.8946 10.7684C34.9406 10.7888 34.9865 10.7989 35.0375 10.7989C35.1039 10.7989 35.1651 10.7786 35.2264 10.748C35.2927 10.8549 35.4101 10.9312 35.5479 10.9312C35.553 10.9312 35.5581 10.9312 35.5632 10.9312C35.6091 10.9312 35.65 10.916 35.6857 10.9007C35.7163 10.9109 35.7469 10.916 35.7826 10.916C35.849 10.9516 35.9204 10.9719 35.9868 10.9668C36.0174 10.9719 36.048 10.977 36.0735 10.977C36.094 10.977 36.1093 10.9719 36.1297 10.9668C36.1705 10.977 36.2062 10.9821 36.242 10.9821C36.3389 10.9821 36.4155 10.9465 36.4767 10.9109C36.538 10.8702 36.5788 10.8193 36.6094 10.7633C36.6502 10.7786 36.6962 10.7938 36.7421 10.7938L36.7217 10.7633Z" fill="white"/>
<path d="M40.8657 15.0477C40.881 15.0121 40.8963 14.9765 40.9014 14.9357C40.9116 14.8594 40.8912 14.7933 40.8657 14.7322C40.8657 14.7322 40.8657 14.7271 40.8657 14.722C40.8657 14.7017 40.8759 14.6813 40.8759 14.661C40.8759 14.6101 40.8708 14.5592 40.8504 14.5134C40.8504 14.4981 40.8504 14.488 40.8504 14.4727C40.8912 14.3913 40.9065 14.2997 40.881 14.2081C40.8657 14.142 40.83 14.0911 40.784 14.0453C40.784 14.03 40.784 14.0198 40.784 14.0046C40.8249 13.8926 40.8096 13.7603 40.7381 13.6586C40.7177 13.628 40.6922 13.6077 40.6667 13.5873C40.6667 13.5873 40.6667 13.5873 40.6667 13.5822C40.6156 13.4398 40.4829 13.3482 40.34 13.3329C40.3247 13.3176 40.3094 13.3024 40.289 13.2922C40.289 13.1853 40.2431 13.0785 40.1563 13.0022C40.1359 12.9564 40.1002 12.9106 40.0491 12.8648C39.993 12.819 39.7225 12.6358 39.3602 12.9157C39.3347 12.8444 39.2887 12.7884 39.2275 12.7427C39.2071 12.6918 39.1764 12.646 39.1305 12.6053C38.9978 12.4882 38.8141 12.4882 38.6712 12.5798C38.5793 12.4882 38.4416 12.4475 38.3038 12.4831C38.2578 12.4984 38.2119 12.5188 38.1762 12.5442C38.0894 12.5696 38.018 12.6256 37.972 12.6969C37.9465 12.7172 37.9312 12.7376 37.9108 12.7579C37.8547 12.763 37.8036 12.7783 37.7526 12.8088C37.7271 12.8241 37.7169 12.8444 37.6964 12.8648C37.6403 12.8648 37.5842 12.88 37.5331 12.9106C37.4974 12.9309 37.4719 12.9564 37.4464 12.9869C37.4362 12.992 37.426 12.9971 37.4158 13.0073C37.3698 13.0429 37.3443 13.0938 37.3188 13.1395C37.278 13.165 37.2422 13.2006 37.2116 13.2464C37.1759 13.2769 37.1453 13.3126 37.1198 13.3533C37.084 13.3889 37.0534 13.4296 37.033 13.4805C37.0177 13.511 37.0177 13.5466 37.0126 13.5771C36.9564 13.6229 36.9054 13.684 36.885 13.7654C36.885 13.7654 36.885 13.7705 36.885 13.7756C36.8697 13.8061 36.8544 13.8367 36.8442 13.8672C36.8442 13.8774 36.834 13.8875 36.8289 13.8977C36.7931 13.9893 36.8033 14.086 36.8391 14.1725C36.7625 14.2183 36.7064 14.2946 36.686 14.4218C36.6757 14.4727 36.6809 14.5185 36.686 14.5592C36.686 14.5592 36.686 14.5592 36.686 14.5643C36.686 14.5643 36.686 14.5694 36.686 14.5745C36.686 14.5846 36.6809 14.5948 36.6758 14.605C36.6758 14.6559 36.6809 14.7068 36.6962 14.7526C36.6962 14.8136 36.6962 14.8696 36.7217 14.9256C36.7217 14.9357 36.7217 14.9459 36.7217 14.9561V14.9663C36.7217 14.9663 36.7217 14.9663 36.7217 14.9765C36.7217 14.9968 36.7268 15.0121 36.7319 15.0273C36.7319 15.0426 36.7268 15.0528 36.7319 15.068C36.7319 15.1037 36.7523 15.1393 36.7676 15.1749C36.7676 15.2003 36.7676 15.2309 36.7727 15.2614C36.7523 15.3275 36.7421 15.3937 36.7574 15.4649C36.7574 15.47 36.7574 15.4751 36.7625 15.4802C36.7625 15.5209 36.7727 15.5667 36.7931 15.6074C36.8084 15.643 36.8289 15.6736 36.8544 15.7041C36.8544 15.7143 36.8595 15.7194 36.8646 15.7244C36.8646 15.7397 36.8646 15.755 36.8748 15.7651L36.8952 15.8109C36.9513 15.928 37.0534 15.9839 37.1708 15.9992C37.1453 16.1213 37.1759 16.2485 37.2678 16.3452C37.3392 16.4165 37.426 16.4521 37.5178 16.4521C37.5382 16.5742 37.6199 16.6861 37.7373 16.737C37.7883 16.7574 37.8393 16.7676 37.8853 16.7676C37.9516 16.7676 38.018 16.7472 38.0792 16.7116C38.1455 16.8134 38.2629 16.8846 38.3905 16.8846C38.3905 16.8846 38.4007 16.8846 38.4058 16.8846C38.4518 16.8846 38.4926 16.8693 38.5334 16.8541C38.564 16.8642 38.5947 16.8693 38.6253 16.8693C38.6916 16.9049 38.758 16.9253 38.8345 16.9202C38.8651 16.9253 38.8958 16.9304 38.9213 16.9304C38.9417 16.9304 38.957 16.9253 38.9723 16.9202C39.0131 16.9304 39.0489 16.9355 39.0846 16.9355C39.1816 16.9355 39.2581 16.8999 39.3193 16.8591C39.3806 16.8184 39.4214 16.7676 39.452 16.7116C39.4929 16.7269 39.5388 16.7421 39.5847 16.7421C39.6664 16.7421 39.7531 16.7167 39.8195 16.6607C39.8756 16.6454 39.9318 16.6251 39.9777 16.5844C40.0083 16.5589 40.0287 16.5233 40.0491 16.4928C40.0542 16.4928 40.0645 16.4877 40.0696 16.4826C40.09 16.4673 40.1053 16.447 40.1206 16.4266C40.1308 16.4165 40.1461 16.4165 40.1563 16.4063C40.1767 16.391 40.1818 16.3707 40.1971 16.3503C40.2176 16.335 40.2431 16.3249 40.2584 16.3045C40.2686 16.2943 40.2686 16.2791 40.2788 16.2689C40.3196 16.2384 40.3554 16.1977 40.3809 16.1519C40.3962 16.1366 40.4115 16.1213 40.4268 16.101C40.4268 16.101 40.4268 16.101 40.4319 16.101C40.4523 16.0755 40.4574 16.0501 40.4676 16.0247C40.4676 16.0196 40.4727 16.0145 40.4778 16.0094C40.4778 16.0043 40.4829 15.9992 40.488 15.9941C40.5238 15.9534 40.5493 15.9076 40.5646 15.8517C40.6207 15.8109 40.6718 15.755 40.7024 15.6837C40.7228 15.6329 40.733 15.582 40.7279 15.526C40.7432 15.5006 40.7534 15.4751 40.7636 15.4446C40.7994 15.3988 40.8351 15.353 40.8504 15.2919C40.8606 15.2461 40.8606 15.2003 40.8555 15.1545C40.8555 15.1189 40.8555 15.0884 40.8555 15.0579L40.8657 15.0477Z" fill="white"/>
</svg>
